<?xml version="1.0" ?><!DOCTYPE svg  PUBLIC '-//W3C//DTD SVG 1.1//EN'  'http://www.w3.org/Graphics/SVG/1.1/DTD/svg11.dtd'><svg height="32px" style="fill-rule:evenodd;clip-rule:evenodd;stroke-linejoin:round;stroke-miterlimit:2;" version="1.1" width="32px" xml:space="preserve" xmlns="http://www.w3.org/2000/svg" xmlns:serif="http://www.serif.com/" xmlns:xlink="http://www.w3.org/1999/xlink"><path d="M4.48,10c-0.265,-0 -0.48,0.212 -0.48,0.474l-0,16.105c-0,0.377 0.152,0.738 0.422,1.005c0.27,0.266 0.636,0.416 1.018,0.416c3.748,0 17.372,0 21.12,0c0.382,0 0.748,-0.15 1.018,-0.416c0.27,-0.267 0.422,-0.628 0.422,-1.005c0,-3.583 0,-16.105 0,-16.105c0,-0.262 -0.215,-0.474 -0.48,-0.474l-23.04,-0Z" style="fill:#8ac4d0;"/><path d="M24,20.429c0,-0.237 -0.211,-0.429 -0.471,-0.429l-15.058,0c-0.26,0 -0.471,0.192 -0.471,0.429l0,5.142c0,0.237 0.211,0.429 0.471,0.429l15.058,-0c0.26,-0 0.471,-0.192 0.471,-0.429l0,-5.142Zm-8.444,-7.429c-1.999,0.2 -3.556,1.736 -3.556,3.598c0,0.222 0.199,0.402 0.444,0.402l7.112,0c0.245,0 0.444,-0.18 0.444,-0.402c-0,-1.862 -1.557,-3.398 -3.556,-3.598l-0.888,0Z" style="fill:#fbeeac;"/><path d="M14,23.999l0,1.601c0,0.221 0.179,0.57 0.4,0.57l3.2,-0c0.221,-0 0.4,-0.349 0.4,-0.57l-0,-1.6c-0,-1.104 -0.896,-1.999 -2,-1.999c-1.103,-0 -1.999,0.895 -2,1.998Z" style="fill:#8ac4d0;"/><path d="M6,16.373l0,9.169c0,0.253 0.149,0.458 0.333,0.458l1.334,-0c0.184,0 0.333,-0.205 0.333,-0.458l-0,-9.167c-0,-0.365 -0.105,-0.715 -0.293,-0.972c-0.187,-0.258 -0.442,-0.403 -0.707,-0.403l-0.001,-0c-0.551,-0 -0.999,0.615 -0.999,1.373Zm20,9.169l-0,-9.167c-0,-0.759 -0.448,-1.375 -1,-1.375l-0.001,0c-0.552,0 -0.999,0.615 -0.999,1.374l0,9.168c0,0.253 0.149,0.458 0.333,0.458l1.334,-0c0.184,0 0.333,-0.205 0.333,-0.458Zm-2,-8.167c-0,-0.207 -0.211,-0.375 -0.471,-0.375l-15.058,0c-0.26,-0 -0.471,0.168 -0.471,0.375l0,2.254c0,0.207 0.211,0.375 0.471,0.375l15.058,-0c0.26,-0 0.471,-0.168 0.471,-0.375l-0,-2.254Zm2.56,-11.375l-21.12,0c-0.795,0 -1.44,0.537 -1.44,1.2l0,2.4c0,0.221 0.215,0.4 0.48,0.4l23.04,-0c0.265,-0 0.48,-0.179 0.48,-0.4l-0,-2.4c0,-0.663 -0.645,-1.2 -1.44,-1.2Z" style="fill:#f4d160;"/><path d="M25,6.8l-0,-1.6c-0,-0.663 -0.538,-1.2 -1.2,-1.2l-1.6,0c-0.662,0 -1.2,0.537 -1.2,1.2l0,1.6c0,0.663 0.538,1.2 1.2,1.2l1.6,0c0.662,0 1.2,-0.537 1.2,-1.2Zm-7,0l-0,-1.6c-0,-0.663 -0.537,-1.2 -1.2,-1.2l-1.6,0c-0.663,0 -1.2,0.537 -1.2,1.2l-0,1.6c0,0.663 0.537,1.2 1.2,1.2l1.6,0c0.663,-0 1.2,-0.537 1.2,-1.2Zm-7,0l0,-1.6c-0,-0.663 -0.537,-1.2 -1.2,-1.2l-1.6,0c-0.663,0 -1.2,0.537 -1.2,1.2l-0,1.6c0,0.663 0.537,1.2 1.2,1.2l1.6,0c0.663,-0 1.2,-0.537 1.2,-1.2Z" style="fill:#8ac4d0;"/><path d="M28.5,27c-0,-3.782 -0,-20 -0,-20c0,-0.828 -0.672,-1.5 -1.5,-1.5l-1.5,-0l-0,-0.5c-0,-0.828 -0.672,-1.5 -1.5,-1.5l-2,-0c-0.828,0 -1.5,0.672 -1.5,1.5l-0,0.5l-2,-0l-0,-0.5c-0,-0.828 -0.672,-1.5 -1.5,-1.5l-2,-0c-0.828,0 -1.5,0.672 -1.5,1.5l0,0.5l-2,-0l0,-0.5c-0,-0.828 -0.672,-1.5 -1.5,-1.5l-2,0c-0.828,0 -1.5,0.672 -1.5,1.5l-0,0.5l-1.5,-0c-0.828,0 -1.5,0.672 -1.5,1.5c-0,-0 -0,16.218 -0,20c-0,0.398 0.158,0.779 0.439,1.061c0.282,0.281 0.663,0.439 1.061,0.439c3.904,-0 18.096,-0 22,-0c0.398,0 0.779,-0.158 1.061,-0.439c0.281,-0.282 0.439,-0.663 0.439,-1.061Zm-1,-16.5l-23,-0l-0,16.5c-0,0.133 0.053,0.26 0.146,0.354c0.094,0.093 0.221,0.146 0.354,0.146c3.904,-0 18.096,-0 22,-0c0.133,0 0.26,-0.053 0.354,-0.146c0.093,-0.094 0.146,-0.221 0.146,-0.354l-0,-16.5Zm-12,2.028c-2.085,0.23 -3.742,1.888 -3.972,3.972l-3.028,0l0,-0.5c-0,-0.398 -0.158,-0.779 -0.439,-1.061c-0.282,-0.281 -0.663,-0.439 -1.061,-0.439l-0.001,-0c-0.828,-0 -1.499,0.672 -1.499,1.5c-0,0 0,10 0,10c0,0.276 0.224,0.5 0.5,0.5l20,0c0.276,0 0.5,-0.224 0.5,-0.5c0,0 0,-10 0,-10c-0,-0.828 -0.672,-1.5 -1.5,-1.5l-0.001,0c-0.828,0 -1.499,0.671 -1.499,1.499l0,0.501l-3.028,0c-0.23,-2.085 -1.888,-3.742 -3.972,-3.972l0,-0.528c0,-0.276 -0.224,-0.5 -0.5,-0.5c-0.276,-0 -0.5,0.224 -0.5,0.5l-0,0.528Zm10,9.972l0,3c-0,0 -1,0 -1,0c0,-0 0,-2.956 0,-3l1,0Zm-18,3c-0,0 -1,0 -1,0c0,-0 0,-2.992 0,-3l1,0l-0,3Zm16,-5l-15,-0l0,5l5,-0l-0,-1.5l0,-0.001c0.001,-1.379 1.121,-2.499 2.5,-2.499c1.38,0 2.5,1.12 2.5,2.5l0,0l0,1.5l5,-0l0,-5Zm-6,3.5c0,-0.827 -0.672,-1.5 -1.5,-1.5c-0.828,0 -1.5,0.673 -1.5,1.5l-0,0.75l-0,0.75l3,-0l0,-1.5Zm8,-8l0,-0c-0,-0.276 -0.224,-0.5 -0.5,-0.5l-0.001,0c-0.276,0 -0.499,0.223 -0.499,0.499l0,5.501l1,-0l0,-5.5Zm-18,0l0,-0c0,-0.133 -0.053,-0.26 -0.146,-0.354c-0.094,-0.093 -0.221,-0.146 -0.354,-0.146l-0.001,-0c-0.276,-0 -0.499,0.223 -0.499,0.499l0,5.501l1,-0l0,-5.5Zm13,3.5l3,0l0,-2l-15,0l0,2l3,0l-0,-0.5c-0,-0.276 0.224,-0.5 0.5,-0.5c0.276,0 0.5,0.224 0.5,0.5l-0,0.5l1,0l0,-0.5c-0,-0.276 0.224,-0.5 0.5,-0.5c0.276,0 0.5,0.224 0.5,0.5l0,0.5l1,0l0,-0.5c0,-0.276 0.224,-0.5 0.5,-0.5c0.276,0 0.5,0.224 0.5,0.5l0,0.5l1,0l0,-0.5c0,-0.276 0.224,-0.5 0.5,-0.5c0.276,0 0.5,0.224 0.5,0.5l0,0.5l1,0l0,-0.5c0,-0.276 0.224,-0.5 0.5,-0.5c0.276,0 0.5,0.224 0.5,0.5l0,0.5Zm-1.036,-3c-0.243,-1.695 -1.702,-3 -3.464,-3c-1.762,0 -3.221,1.305 -3.464,3l6.928,0Zm-5.964,-10l-2,-0l0,0.5c-0,0.828 -0.672,1.5 -1.5,1.5l-2,-0c-0.828,-0 -1.5,-0.672 -1.5,-1.5l-0,-0.5l-1.5,0c-0.276,0 -0.5,0.224 -0.5,0.5c-0,0 -0,2.5 0,2.5c0,-0 23,-0 23,0l-0,-2.5c0,-0.276 -0.224,-0.5 -0.5,-0.5l-1.5,-0l-0,0.5c-0,0.828 -0.672,1.5 -1.5,1.5l-2,-0c-0.828,-0 -1.5,-0.672 -1.5,-1.5l-0,-0.5l-2,-0l-0,0.5c-0,0.828 -0.672,1.5 -1.5,1.5l-2,0c-0.828,-0 -1.5,-0.672 -1.5,-1.5l0,-0.5Zm11,-1.5l-0,2c-0,0.276 -0.224,0.5 -0.5,0.5c-0.611,0 -1.389,-0 -2,-0c-0.276,-0 -0.5,-0.224 -0.5,-0.5c-0,-0 -0,-2 -0,-2c0,-0.276 0.224,-0.5 0.5,-0.5c0,-0 2,-0 2,-0c0.276,0 0.5,0.224 0.5,0.5Zm-7,-0l-0,2c-0,0.276 -0.224,0.5 -0.5,0.5c-0,0 -2,0 -2,0c-0.276,-0 -0.5,-0.224 -0.5,-0.5c-0,-0.611 0,-1.389 0,-2c0,-0.276 0.224,-0.5 0.5,-0.5c0,-0 2,-0 2,-0c0.276,0 0.5,0.224 0.5,0.5Zm-7,-0l0,2c-0,0.276 -0.224,0.5 -0.5,0.5c-0,-0 -2,-0 -2,-0c-0.276,-0 -0.5,-0.224 -0.5,-0.5c-0,-0 -0,-2 -0,-2c0,-0.276 0.224,-0.5 0.5,-0.5c0.611,0 1.389,0 2,0c0.276,0 0.5,0.224 0.5,0.5Z" id="Islamic-calender"/></svg>