<svg id="svg" version="1.1" xmlns="http://www.w3.org/2000/svg" xmlns:xlink="http://www.w3.org/1999/xlink" width="400" height="400" viewBox="0, 0, 400,400"><g id="svgg"><path id="path0" d="M40.000 0.424 C 39.230 0.607,38.105 0.877,37.500 1.025 C 36.895 1.173,36.400 1.452,36.400 1.647 C 36.400 1.841,36.188 2.000,35.928 2.000 C 35.173 2.000,31.600 3.710,31.600 4.071 C 31.600 4.252,31.328 4.400,30.996 4.400 C 30.664 4.400,29.828 4.940,29.137 5.600 C 28.446 6.260,27.737 6.800,27.560 6.800 C 27.166 6.800,23.200 10.727,23.199 11.119 C 23.199 11.274,22.659 12.030,22.000 12.800 C 21.341 13.570,20.801 14.425,20.801 14.700 C 20.800 14.975,20.620 15.200,20.400 15.200 C 20.180 15.200,20.000 15.560,20.000 16.000 C 20.000 16.440,19.820 16.800,19.600 16.800 C 19.380 16.800,19.200 17.160,19.200 17.600 C 19.200 18.040,19.020 18.400,18.800 18.400 C 18.580 18.400,18.400 18.760,18.400 19.200 C 18.400 19.640,18.220 20.000,18.000 20.000 C 17.780 20.000,17.600 20.540,17.600 21.200 C 17.600 21.860,17.420 22.400,17.200 22.400 C 16.980 22.400,16.800 23.120,16.800 24.000 C 16.800 24.886,16.606 25.600,16.365 25.600 C 16.052 25.600,15.968 61.131,16.065 152.000 C 16.139 221.520,16.335 278.400,16.500 278.400 C 16.665 278.400,16.800 278.760,16.800 279.200 C 16.800 279.640,16.980 280.000,17.200 280.000 C 17.420 280.000,17.600 280.540,17.600 281.200 C 17.600 281.860,17.780 282.400,18.000 282.400 C 18.220 282.400,18.400 282.760,18.400 283.200 C 18.400 283.640,18.580 284.000,18.800 284.000 C 19.020 284.000,19.200 284.349,19.200 284.776 C 19.200 285.203,19.380 285.664,19.600 285.800 C 19.820 285.936,20.000 286.487,20.000 287.024 C 20.000 287.561,20.180 288.000,20.400 288.000 C 20.620 288.000,20.800 288.360,20.800 288.800 C 20.800 289.240,20.946 289.600,21.125 289.600 C 21.304 289.600,21.698 290.230,22.000 291.000 C 22.302 291.770,22.696 292.400,22.875 292.400 C 23.054 292.400,23.200 292.760,23.200 293.200 C 23.200 293.640,23.380 294.000,23.600 294.000 C 23.820 294.000,24.000 294.360,24.000 294.800 C 24.000 295.240,24.180 295.600,24.400 295.600 C 24.620 295.600,24.800 295.842,24.800 296.139 C 24.800 296.700,25.480 298.282,26.890 301.000 C 27.346 301.880,27.917 303.004,28.160 303.497 C 28.402 303.990,28.735 304.395,28.900 304.397 C 29.065 304.399,29.200 304.593,29.200 304.828 C 29.200 305.063,29.740 306.041,30.400 307.000 C 31.060 307.959,31.600 308.937,31.600 309.172 C 31.600 309.407,31.780 309.600,32.000 309.600 C 32.220 309.600,32.400 309.920,32.400 310.312 C 32.400 310.703,32.760 311.283,33.200 311.600 C 33.640 311.917,34.000 312.457,34.000 312.800 C 34.000 313.143,34.360 313.683,34.800 314.000 C 35.240 314.317,35.600 314.831,35.600 315.141 C 35.600 315.452,35.927 315.997,36.328 316.353 C 36.728 316.709,37.182 317.341,37.337 317.757 C 37.492 318.174,37.750 318.384,37.909 318.224 C 38.069 318.064,38.290 258.053,38.400 184.867 L 38.600 51.800 142.940 51.600 L 247.281 51.400 247.861 49.600 C 249.212 45.408,253.077 37.933,256.345 33.189 C 267.797 16.566,284.632 5.488,304.700 1.369 C 305.195 1.268,305.600 0.918,305.600 0.592 C 305.600 -0.076,42.808 -0.242,40.000 0.424 M66.440 29.266 C 75.065 32.226,72.920 44.636,63.800 44.545 C 53.593 44.444,53.632 29.091,63.840 28.832 C 64.522 28.814,65.692 29.010,66.440 29.266 M90.000 29.640 C 97.283 33.992,94.608 44.800,86.249 44.800 C 78.717 44.800,75.116 35.913,80.580 30.812 C 82.907 28.640,87.393 28.082,90.000 29.640 M110.511 29.224 C 119.194 31.635,117.394 44.523,108.373 44.531 C 99.085 44.540,97.521 32.292,106.400 29.080 C 107.383 28.725,108.904 28.778,110.511 29.224 M316.600 35.226 C 313.031 36.998,312.656 38.170,312.408 48.340 L 312.200 56.880 310.400 57.885 C 293.272 67.450,296.233 91.714,315.077 96.217 C 337.744 101.632,350.044 68.522,329.263 58.032 L 326.856 56.817 326.728 48.108 C 326.606 39.791,326.558 39.332,325.665 37.896 C 323.704 34.743,319.857 33.609,316.600 35.226 M323.084 70.786 C 326.871 73.095,326.824 79.236,323.001 81.599 C 317.318 85.112,310.543 78.563,313.998 72.896 C 315.721 70.071,320.203 69.029,323.084 70.786 M80.903 96.175 C 76.593 98.559,76.800 96.637,76.800 134.200 L 76.800 166.809 77.684 168.704 C 78.740 170.971,78.907 171.145,81.138 172.300 L 82.876 173.200 115.938 173.166 C 134.122 173.147,148.530 172.989,147.956 172.815 C 142.836 171.265,138.705 166.020,138.149 160.366 C 137.746 156.257,136.371 155.073,133.496 156.357 C 129.888 157.967,127.440 158.496,123.600 158.496 C 120.126 158.496,117.431 157.973,114.400 156.711 C 101.972 151.537,95.826 136.699,101.224 124.904 C 101.651 123.972,102.000 123.027,102.000 122.804 C 102.000 122.582,102.180 122.400,102.400 122.400 C 102.620 122.400,102.803 122.175,102.807 121.900 C 102.843 119.445,110.336 113.444,116.200 111.173 C 118.532 110.271,125.482 109.912,128.200 110.554 C 131.125 111.246,132.767 111.843,135.133 113.078 C 136.526 113.805,137.716 114.400,137.777 114.400 C 137.837 114.400,137.979 112.458,138.091 110.085 C 138.422 103.108,141.656 98.113,147.099 96.171 C 148.374 95.716,143.566 95.638,115.200 95.657 C 89.395 95.674,81.596 95.791,80.903 96.175 M118.604 124.535 C 113.989 127.035,111.157 133.982,113.153 137.905 C 113.348 138.287,113.752 139.122,114.053 139.759 C 114.753 141.245,116.755 143.247,118.241 143.947 C 118.878 144.248,119.713 144.652,120.095 144.847 C 120.477 145.041,121.774 145.200,122.978 145.200 L 125.167 145.200 124.183 143.242 C 123.159 141.202,122.914 139.424,123.600 139.000 C 123.820 138.864,124.000 138.403,124.000 137.976 C 124.000 137.549,124.180 137.200,124.400 137.200 C 124.620 137.200,124.804 136.975,124.809 136.700 C 124.842 134.717,131.025 133.137,132.976 134.613 C 135.737 136.701,134.311 129.814,131.318 126.600 C 128.468 123.541,122.292 122.538,118.604 124.535 M308.499 257.399 C 308.555 315.553,308.717 363.251,308.861 363.394 C 309.194 363.728,310.607 362.909,312.130 361.500 C 312.784 360.895,313.480 360.400,313.678 360.400 C 313.875 360.400,314.470 359.995,314.999 359.500 C 316.325 358.260,316.892 357.812,317.726 357.345 C 318.766 356.764,322.320 353.552,326.740 349.200 L 330.600 345.400 330.497 248.800 L 330.394 152.200 320.842 152.331 C 315.273 152.408,310.687 152.296,309.844 152.063 L 308.398 151.664 308.499 257.399 " stroke="none" fill="#268eb5" fill-rule="evenodd"></path><path id="path1" d="M307.600 0.270 C 307.050 0.384,306.456 0.730,306.280 1.038 C 306.104 1.347,305.632 1.600,305.231 1.600 C 304.535 1.600,298.327 3.133,295.800 3.928 C 288.726 6.156,274.809 13.437,272.800 15.961 C 272.690 16.100,271.970 16.730,271.200 17.362 C 264.945 22.499,254.800 33.919,254.800 35.824 C 254.800 35.951,254.294 36.808,253.675 37.728 C 240.287 57.632,240.015 90.995,253.056 113.600 C 262.284 129.595,278.205 143.038,293.800 148.002 C 294.680 148.282,295.760 148.641,296.200 148.800 C 298.027 149.460,300.586 150.129,305.300 151.178 C 312.764 152.840,327.165 152.655,335.800 150.788 C 336.900 150.550,338.387 150.256,339.104 150.134 C 339.821 150.012,340.506 149.751,340.627 149.556 C 340.748 149.360,341.276 149.200,341.800 149.200 C 342.324 149.200,342.864 149.020,343.000 148.800 C 343.136 148.580,343.676 148.400,344.200 148.400 C 344.724 148.400,345.264 148.220,345.400 148.000 C 345.536 147.780,345.902 147.600,346.214 147.600 C 347.830 147.600,362.008 140.248,363.200 138.792 C 363.310 138.657,364.213 137.994,365.207 137.319 C 366.200 136.643,367.937 135.260,369.066 134.245 C 370.194 133.230,371.433 132.400,371.819 132.400 C 372.555 132.400,376.800 128.282,376.800 127.568 C 376.800 127.341,377.700 126.292,378.800 125.237 C 379.900 124.183,380.800 123.153,380.800 122.948 C 380.800 122.744,381.160 122.317,381.600 122.000 C 382.040 121.683,382.400 121.227,382.400 120.987 C 382.400 120.747,382.715 120.202,383.100 119.775 C 383.485 119.349,384.055 118.505,384.368 117.900 C 384.680 117.295,385.085 116.800,385.268 116.800 C 385.450 116.800,385.600 116.440,385.600 116.000 C 385.600 115.560,385.735 115.199,385.900 115.197 C 386.065 115.195,386.401 114.790,386.646 114.297 C 386.891 113.804,387.646 112.320,388.324 111.000 C 390.479 106.803,391.215 105.044,391.462 103.502 C 391.594 102.676,391.859 102.000,392.051 102.000 C 392.243 102.000,392.400 101.460,392.400 100.800 C 392.400 100.140,392.580 99.600,392.800 99.600 C 393.020 99.600,393.200 98.880,393.200 98.000 C 393.200 97.120,393.380 96.400,393.600 96.400 C 393.820 96.400,394.000 95.680,394.000 94.800 C 394.000 93.920,394.180 93.200,394.400 93.200 C 394.620 93.200,394.800 92.390,394.800 91.400 C 394.800 90.410,394.980 89.600,395.200 89.600 C 395.428 89.600,395.600 88.408,395.600 86.824 C 395.600 85.297,395.780 83.936,396.000 83.800 C 396.243 83.650,396.400 80.670,396.400 76.200 C 396.400 71.730,396.243 68.750,396.000 68.600 C 395.780 68.464,395.600 67.103,395.600 65.576 C 395.600 63.992,395.428 62.800,395.200 62.800 C 394.980 62.800,394.800 62.001,394.800 61.024 C 394.800 60.047,394.620 59.136,394.400 59.000 C 394.180 58.864,394.000 58.133,394.000 57.376 C 394.000 56.619,393.820 56.000,393.600 56.000 C 393.380 56.000,393.200 55.280,393.200 54.400 C 393.200 53.520,393.020 52.800,392.800 52.800 C 392.580 52.800,392.400 52.260,392.400 51.600 C 392.400 50.940,392.243 50.400,392.051 50.400 C 391.859 50.400,391.590 49.699,391.453 48.841 C 391.207 47.302,390.956 46.708,388.395 41.600 C 387.678 40.170,386.891 38.596,386.646 38.103 C 386.401 37.610,386.065 37.205,385.900 37.203 C 385.735 37.201,385.600 36.840,385.600 36.400 C 385.600 35.960,385.450 35.600,385.268 35.600 C 385.085 35.600,384.681 35.105,384.370 34.500 C 384.060 33.895,383.489 33.109,383.103 32.753 C 382.716 32.397,382.400 31.852,382.400 31.541 C 382.400 31.231,382.040 30.717,381.600 30.400 C 381.160 30.083,380.800 29.593,380.800 29.312 C 380.800 29.030,380.620 28.800,380.400 28.800 C 380.180 28.800,380.000 28.623,380.000 28.406 C 380.000 27.479,367.648 15.200,366.715 15.200 C 366.538 15.200,365.828 14.660,365.137 14.000 C 364.446 13.340,363.678 12.800,363.429 12.800 C 363.180 12.800,362.717 12.440,362.400 12.000 C 362.083 11.560,361.518 11.200,361.145 11.200 C 360.772 11.200,360.407 11.056,360.333 10.880 C 360.143 10.422,356.406 8.400,355.750 8.400 C 355.447 8.400,355.200 8.220,355.200 8.000 C 355.200 7.780,354.840 7.600,354.400 7.600 C 353.960 7.600,353.600 7.420,353.600 7.200 C 353.600 6.980,353.240 6.800,352.800 6.800 C 352.360 6.800,352.000 6.620,352.000 6.400 C 352.000 6.180,351.640 6.000,351.200 6.000 C 350.760 6.000,350.400 5.820,350.400 5.600 C 350.400 5.380,349.961 5.200,349.424 5.200 C 348.887 5.200,348.336 5.020,348.200 4.800 C 348.064 4.580,347.603 4.400,347.176 4.400 C 346.749 4.400,346.400 4.220,346.400 4.000 C 346.400 3.780,345.860 3.600,345.200 3.600 C 344.540 3.600,344.000 3.420,344.000 3.200 C 344.000 2.980,343.460 2.800,342.800 2.800 C 342.140 2.800,341.600 2.620,341.600 2.400 C 341.600 2.180,340.970 2.000,340.200 2.000 C 339.430 2.000,338.800 1.820,338.800 1.600 C 338.800 1.380,338.005 1.200,337.033 1.200 C 335.997 1.200,335.199 0.998,335.104 0.711 C 334.937 0.210,309.833 -0.193,307.600 0.270 M319.514 30.500 C 319.622 34.174,319.678 34.400,320.479 34.400 C 321.869 34.400,324.662 36.283,325.665 37.896 C 326.558 39.332,326.606 39.791,326.728 48.108 L 326.856 56.817 329.263 58.032 C 334.819 60.837,339.988 68.461,339.998 73.867 C 340.003 76.568,339.017 76.400,354.819 76.400 C 362.703 76.400,369.235 76.535,369.335 76.700 C 369.895 77.621,368.078 88.523,366.752 92.200 C 365.941 94.449,365.706 95.000,364.367 97.800 C 351.799 124.066,318.576 133.650,293.400 118.271 C 291.640 117.196,290.110 116.190,290.000 116.035 C 289.890 115.880,289.419 115.494,288.954 115.177 C 284.170 111.913,277.468 103.433,274.591 97.000 C 272.621 92.597,272.484 92.183,270.735 85.400 C 270.407 84.129,270.219 80.775,270.219 76.200 C 270.219 71.625,270.407 68.271,270.735 67.000 C 272.484 60.217,272.621 59.803,274.591 55.400 C 277.468 48.967,284.170 40.487,288.954 37.223 C 289.419 36.906,289.890 36.545,290.000 36.422 C 290.217 36.178,292.460 34.712,295.000 33.154 C 301.770 29.000,310.735 26.325,317.200 26.530 L 319.400 26.600 319.514 30.500 M61.400 29.283 C 53.086 32.189,55.015 44.458,63.800 44.545 C 67.361 44.581,69.765 43.088,71.184 39.959 C 74.011 33.728,67.866 27.022,61.400 29.283 M83.200 29.437 C 77.811 31.767,76.525 38.690,80.768 42.524 C 86.013 47.262,93.982 43.810,93.982 36.800 C 93.982 31.136,88.278 27.241,83.200 29.437 M81.097 195.288 C 78.009 197.081,77.999 197.154,78.009 216.826 C 78.021 241.829,75.135 239.236,102.800 239.101 L 123.400 239.000 123.400 216.800 L 123.400 194.600 103.000 194.507 C 82.672 194.415,82.595 194.417,81.097 195.288 M80.919 261.184 C 78.368 262.739,78.400 262.468,78.400 282.600 C 78.400 302.684,78.350 302.254,80.894 304.068 L 82.200 305.000 102.564 305.121 C 118.949 305.217,122.992 305.139,123.258 304.721 C 123.439 304.434,123.591 294.345,123.594 282.300 L 123.600 260.400 102.900 260.401 C 83.075 260.403,82.146 260.436,80.919 261.184 " stroke="none" fill="#fb9e33" fill-rule="evenodd"></path><path id="path2" d="M311.600 27.002 C 305.613 27.956,300.205 29.960,295.000 33.154 C 292.460 34.712,290.217 36.178,290.000 36.422 C 289.890 36.545,289.419 36.906,288.954 37.223 C 284.170 40.487,277.468 48.967,274.591 55.400 C 272.621 59.803,272.484 60.217,270.735 67.000 C 270.407 68.271,270.219 71.625,270.219 76.200 C 270.219 80.775,270.407 84.129,270.735 85.400 C 272.484 92.183,272.621 92.597,274.591 97.000 C 277.468 103.433,284.170 111.913,288.954 115.177 C 289.419 115.494,289.890 115.880,290.000 116.035 C 290.110 116.190,291.640 117.196,293.400 118.271 C 318.576 133.650,351.799 124.066,364.367 97.800 C 365.706 95.000,365.941 94.449,366.752 92.200 C 368.182 88.236,369.918 77.410,369.239 76.695 C 369.080 76.527,362.571 76.437,354.775 76.495 L 340.600 76.600 340.159 79.287 C 338.420 89.892,330.032 97.200,319.600 97.200 C 301.032 97.200,291.401 74.848,304.313 61.724 C 305.571 60.446,307.320 59.026,308.200 58.570 C 312.765 56.201,312.387 57.202,312.394 47.480 C 312.401 37.191,313.085 35.546,317.848 34.346 L 319.629 33.898 319.514 30.249 L 319.400 26.600 317.200 26.530 C 315.990 26.492,313.470 26.704,311.600 27.002 M243.693 65.600 C 243.693 66.370,243.775 66.685,243.876 66.300 C 243.976 65.915,243.976 65.285,243.876 64.900 C 243.775 64.515,243.693 64.830,243.693 65.600 M316.600 70.886 C 312.590 73.202,312.637 79.372,316.682 81.537 C 320.419 83.537,325.600 80.437,325.600 76.200 C 325.600 71.958,320.233 68.789,316.600 70.886 M242.942 76.600 C 242.941 78.580,243.008 79.440,243.092 78.512 C 243.176 77.584,243.177 75.964,243.095 74.912 C 243.012 73.860,242.943 74.620,242.942 76.600 M120.800 111.252 C 116.565 111.663,113.877 112.616,110.471 114.912 C 108.550 116.208,104.000 120.694,104.000 121.293 C 104.000 121.504,103.671 122.154,103.268 122.738 C 90.956 140.604,113.296 165.078,133.265 155.601 L 135.531 154.526 137.465 156.059 C 143.373 160.740,150.260 153.829,145.572 147.923 C 144.343 146.375,144.168 145.645,144.753 144.495 C 145.233 143.551,145.794 142.097,146.370 140.300 C 146.961 138.459,146.998 129.918,146.420 128.838 C 146.189 128.406,146.000 127.769,146.000 127.422 C 146.000 125.387,141.876 118.978,139.106 116.708 C 133.709 112.286,127.923 110.561,120.800 111.252 M153.735 111.058 C 150.100 111.850,149.799 113.321,149.809 130.200 L 149.817 144.600 151.075 147.281 C 157.525 161.030,177.802 161.257,184.502 147.655 L 185.800 145.019 185.928 130.610 C 186.015 120.910,185.912 115.713,185.615 114.711 C 184.392 110.580,178.483 109.629,175.621 113.101 L 174.400 114.582 174.371 128.191 C 174.338 143.628,174.364 143.488,171.198 145.100 C 168.200 146.627,165.293 146.205,162.900 143.897 L 161.600 142.643 161.600 129.076 C 161.600 111.885,160.587 109.564,153.735 111.058 M194.800 111.407 C 194.030 111.742,192.995 112.639,192.500 113.402 L 191.600 114.789 191.600 134.594 L 191.600 154.400 193.173 155.973 C 196.197 158.997,200.969 158.061,202.652 154.113 C 203.641 151.790,203.437 116.033,202.423 114.045 C 201.028 111.310,197.684 110.153,194.800 111.407 M212.542 111.428 C 208.467 113.474,208.021 118.979,211.727 121.500 C 212.951 122.333,213.492 122.400,219.025 122.406 C 222.311 122.409,225.230 122.558,225.511 122.737 C 226.004 123.049,225.017 124.665,214.596 140.600 C 208.399 150.076,208.116 150.679,208.617 153.351 C 209.394 157.492,210.623 157.800,226.400 157.800 C 242.234 157.800,243.542 157.358,243.542 152.000 C 243.542 147.296,241.074 146.000,232.115 146.000 C 225.137 146.000,224.745 145.869,226.400 144.092 C 226.840 143.620,227.200 143.143,227.200 143.033 C 227.200 142.923,230.018 138.550,233.462 133.316 C 242.925 118.938,242.907 118.970,242.885 116.545 C 242.865 114.271,242.167 112.878,240.472 111.728 C 238.931 110.681,214.550 110.420,212.542 111.428 M126.554 122.875 C 131.665 124.348,135.174 128.909,135.191 134.100 C 135.201 137.122,135.191 137.133,133.525 135.947 C 128.479 132.354,121.455 138.812,125.200 143.600 C 128.218 147.459,119.948 146.991,115.661 143.061 C 106.648 134.797,114.895 119.513,126.554 122.875 M52.303 141.831 C 52.155 141.979,50.901 142.248,49.517 142.429 C 46.043 142.883,43.674 143.412,39.697 144.620 L 38.795 144.895 38.803 232.449 C 38.811 327.608,38.652 320.058,40.700 322.216 C 40.975 322.506,41.200 322.853,41.200 322.988 C 41.200 323.123,41.383 323.451,41.607 323.717 C 43.092 325.477,43.600 326.152,43.600 326.361 C 43.600 326.493,44.320 327.388,45.200 328.351 C 46.080 329.313,46.800 330.254,46.800 330.440 C 46.800 330.626,47.610 331.589,48.600 332.579 C 49.590 333.569,50.400 334.557,50.400 334.775 C 50.400 334.993,50.760 335.365,51.200 335.600 C 51.640 335.835,52.000 336.302,52.000 336.638 C 52.000 336.973,52.180 337.136,52.400 337.000 C 52.620 336.864,52.806 336.988,52.813 337.276 C 52.820 337.564,53.741 338.610,54.859 339.600 C 55.977 340.590,57.276 341.810,57.746 342.310 C 61.589 346.405,67.299 352.000,67.635 352.000 C 67.862 352.000,67.944 352.167,67.818 352.371 C 67.692 352.575,67.962 352.861,68.418 353.006 C 68.875 353.151,70.047 354.068,71.024 355.045 C 72.001 356.022,72.800 356.736,72.800 356.633 C 72.800 356.530,73.380 356.975,74.089 357.623 C 74.798 358.270,75.619 358.800,75.913 358.800 C 76.207 358.800,76.336 358.980,76.200 359.200 C 76.064 359.420,76.244 359.600,76.600 359.600 C 76.956 359.600,77.136 359.780,77.000 360.000 C 76.864 360.220,76.924 360.400,77.134 360.400 C 77.914 360.400,78.000 358.792,78.000 344.157 L 78.000 329.179 79.789 327.389 L 81.579 325.600 102.416 325.600 C 116.014 325.600,123.521 325.744,124.026 326.014 C 125.200 326.642,125.241 369.477,124.069 370.538 C 123.416 371.128,121.772 371.200,108.892 371.200 C 99.093 371.200,94.362 371.337,94.184 371.627 C 93.865 372.142,95.126 373.170,96.100 373.187 C 96.485 373.194,96.800 373.380,96.800 373.600 C 96.800 373.820,96.993 374.000,97.229 374.000 C 97.464 374.000,97.927 374.270,98.257 374.600 C 98.587 374.930,99.204 375.200,99.629 375.200 C 100.053 375.200,100.400 375.380,100.400 375.600 C 100.400 375.820,100.760 376.000,101.200 376.000 C 101.640 376.000,102.000 376.180,102.000 376.400 C 102.000 376.620,102.360 376.800,102.800 376.800 C 103.240 376.800,103.600 376.965,103.600 377.167 C 103.600 377.369,104.500 377.942,105.600 378.439 C 106.700 378.936,107.600 379.491,107.600 379.671 C 107.600 379.852,107.862 380.000,108.182 380.000 C 108.503 380.000,109.681 380.540,110.800 381.200 C 111.919 381.860,113.097 382.400,113.418 382.400 C 113.738 382.400,114.000 382.580,114.000 382.800 C 114.000 383.020,114.450 383.200,115.000 383.200 C 115.550 383.200,116.000 383.380,116.000 383.600 C 116.000 383.820,116.230 384.000,116.510 384.000 C 116.791 384.000,118.096 384.534,119.410 385.187 C 120.725 385.841,122.115 386.381,122.500 386.387 C 122.885 386.394,123.200 386.580,123.200 386.800 C 123.200 387.020,123.472 387.200,123.805 387.200 C 124.138 387.200,124.768 387.380,125.205 387.600 C 125.642 387.820,126.358 388.180,126.795 388.400 C 127.232 388.620,127.864 388.800,128.200 388.800 C 128.536 388.800,129.123 388.959,129.505 389.153 C 131.470 390.151,134.901 391.250,136.734 391.467 C 137.871 391.601,138.800 391.866,138.800 392.056 C 138.800 392.245,139.340 392.400,140.000 392.400 C 140.660 392.400,141.200 392.580,141.200 392.800 C 141.200 393.020,141.740 393.200,142.400 393.200 C 143.060 393.200,143.600 393.380,143.600 393.600 C 143.600 393.820,144.331 394.000,145.224 394.000 C 146.204 394.000,146.749 394.158,146.600 394.400 C 146.451 394.641,146.988 394.800,147.953 394.800 C 148.833 394.800,149.664 394.980,149.800 395.200 C 149.936 395.420,150.746 395.600,151.600 395.600 C 152.454 395.600,153.264 395.780,153.400 396.000 C 153.536 396.220,154.346 396.400,155.200 396.400 C 156.054 396.400,156.864 396.580,157.000 396.800 C 157.136 397.020,158.011 397.200,158.944 397.200 C 159.877 397.200,160.811 397.370,161.020 397.577 C 161.229 397.784,162.435 397.995,163.700 398.045 C 164.965 398.096,166.000 398.286,166.000 398.468 C 166.000 398.651,167.065 398.800,168.367 398.800 C 169.904 398.800,170.792 398.975,170.900 399.300 C 171.144 400.031,219.729 400.031,220.460 399.300 C 220.735 399.025,221.836 398.800,222.906 398.800 C 223.977 398.800,225.169 398.631,225.556 398.423 C 225.943 398.216,227.273 398.006,228.512 397.956 C 229.750 397.906,230.671 397.715,230.558 397.532 C 230.445 397.350,231.253 397.200,232.353 397.200 C 233.453 397.200,234.464 397.020,234.600 396.800 C 234.736 396.580,235.647 396.400,236.624 396.400 C 237.601 396.400,238.400 396.220,238.400 396.000 C 238.400 395.780,239.120 395.600,240.000 395.600 C 240.880 395.600,241.600 395.420,241.600 395.200 C 241.600 394.980,242.305 394.800,243.167 394.800 C 244.028 394.800,244.793 394.628,244.867 394.418 C 244.940 394.207,245.663 393.991,246.474 393.937 C 247.285 393.884,247.859 393.696,247.751 393.520 C 247.642 393.344,248.193 393.200,248.976 393.200 C 249.759 393.200,250.400 393.020,250.400 392.800 C 250.400 392.580,250.929 392.400,251.576 392.400 C 252.223 392.400,252.852 392.240,252.973 392.044 C 253.094 391.849,253.779 391.595,254.496 391.480 C 255.213 391.365,256.070 391.189,256.400 391.087 C 256.730 390.985,257.589 390.766,258.308 390.599 C 259.028 390.433,259.714 390.140,259.832 389.948 C 259.950 389.757,260.487 389.600,261.024 389.600 C 261.561 389.600,262.000 389.420,262.000 389.200 C 262.000 388.980,262.362 388.800,262.805 388.800 C 263.583 388.800,263.969 388.658,265.895 387.662 C 266.387 387.408,267.152 387.200,267.595 387.200 C 268.038 387.200,268.400 387.020,268.400 386.800 C 268.400 386.580,268.638 386.400,268.929 386.400 C 269.220 386.400,270.573 385.860,271.935 385.200 C 273.298 384.540,274.590 384.000,274.806 384.000 C 275.023 384.000,275.200 383.820,275.200 383.600 C 275.200 383.380,275.555 383.200,275.988 383.200 C 276.421 383.200,277.417 382.840,278.200 382.400 C 278.983 381.960,279.919 381.600,280.279 381.600 C 280.639 381.600,280.816 381.483,280.673 381.339 C 280.336 381.003,282.263 380.000,283.246 380.000 C 283.661 380.000,284.000 379.820,284.000 379.600 C 284.000 379.380,284.236 379.200,284.525 379.200 C 284.813 379.200,285.436 378.840,285.908 378.400 C 286.380 377.960,287.044 377.600,287.383 377.600 C 287.722 377.600,288.000 377.420,288.000 377.200 C 288.000 376.980,288.360 376.800,288.800 376.800 C 289.240 376.800,289.600 376.657,289.600 376.482 C 289.600 376.307,290.410 375.830,291.400 375.422 C 292.390 375.013,293.200 374.527,293.200 374.340 C 293.200 374.153,293.448 374.000,293.751 374.000 C 294.054 374.000,294.524 373.732,294.796 373.404 C 295.068 373.077,295.416 372.887,295.570 372.982 C 295.724 373.077,296.357 372.719,296.977 372.186 C 297.597 371.653,298.289 371.331,298.514 371.470 C 298.749 371.616,298.802 371.527,298.638 371.262 C 298.469 370.988,298.607 370.800,298.976 370.800 C 299.319 370.800,299.600 370.620,299.600 370.400 C 299.600 370.180,299.960 370.000,300.400 370.000 C 300.840 370.000,301.200 369.850,301.200 369.668 C 301.200 369.485,301.695 369.081,302.300 368.770 C 302.905 368.460,303.670 367.933,304.000 367.600 C 304.330 367.267,305.095 366.740,305.700 366.430 C 306.305 366.119,306.800 365.715,306.800 365.532 C 306.800 365.350,307.070 365.200,307.400 365.200 C 307.931 365.200,308.000 357.981,308.000 302.628 L 308.000 240.055 304.900 237.357 C 303.195 235.874,299.154 232.142,295.920 229.064 C 284.561 218.255,274.838 213.202,265.397 213.200 L 263.393 213.200 254.797 204.572 C 250.068 199.827,245.480 195.569,244.600 195.110 L 243.000 194.275 194.486 194.550 L 145.972 194.824 143.886 192.674 C 137.132 185.713,134.458 182.777,130.071 177.500 C 128.470 175.575,126.944 173.991,126.680 173.981 C 126.416 173.970,116.210 173.925,104.000 173.881 C 80.100 173.794,81.062 173.878,78.672 171.651 C 76.466 169.595,76.417 169.255,76.304 155.400 L 76.200 142.600 74.000 142.260 C 71.241 141.834,52.667 141.466,52.303 141.831 M123.400 216.800 L 123.400 239.000 102.800 239.101 C 75.135 239.236,78.021 241.829,78.009 216.826 C 77.996 191.878,75.194 194.381,103.000 194.507 L 123.400 194.600 123.400 216.800 M124.700 227.900 C 124.638 234.005,124.587 229.010,124.587 216.800 C 124.587 204.590,124.638 199.595,124.700 205.700 C 124.762 211.805,124.762 221.795,124.700 227.900 M123.594 282.300 C 123.591 294.345,123.439 304.434,123.258 304.721 C 122.992 305.139,118.949 305.217,102.564 305.121 L 82.200 305.000 80.894 304.068 C 78.350 302.254,78.400 302.684,78.400 282.600 C 78.400 257.576,75.279 260.403,102.900 260.401 L 123.600 260.400 123.594 282.300 " stroke="none" fill="#dbe4fb" fill-rule="evenodd"></path><path id="path3" d="M38.667 51.867 C 38.520 52.013,38.400 72.867,38.400 98.208 L 38.400 144.283 40.500 143.700 C 42.611 143.113,44.500 142.691,48.200 141.978 C 54.904 140.685,65.905 140.632,74.700 141.849 L 76.400 142.084 76.400 154.793 C 76.400 169.882,76.575 170.555,81.173 173.149 C 81.990 173.610,96.490 173.691,171.773 173.652 L 261.400 173.607 263.154 172.712 C 264.150 172.205,265.361 171.135,265.954 170.239 L 267.000 168.659 267.112 150.251 L 267.224 131.843 264.481 129.021 C 257.992 122.345,251.783 112.827,248.811 105.000 C 248.644 104.560,248.315 103.750,248.080 103.200 C 247.281 101.330,246.000 97.349,246.000 96.735 C 246.000 94.822,249.348 94.922,177.035 94.666 L 109.470 94.426 108.292 93.313 C 106.174 91.313,103.012 86.258,101.587 82.594 C 100.077 78.710,99.409 70.459,100.353 67.360 C 100.548 66.722,100.938 65.390,101.221 64.400 C 101.962 61.810,103.907 57.757,105.673 55.122 C 106.513 53.869,107.200 52.655,107.200 52.423 C 107.200 52.131,128.525 51.971,177.100 51.900 C 233.830 51.817,227.398 51.779,142.967 51.699 C 85.748 51.644,38.813 51.720,38.667 51.867 M307.660 59.203 C 306.747 59.864,306.000 60.503,306.000 60.623 C 306.000 60.811,308.254 59.277,309.380 58.322 C 310.327 57.519,309.156 58.118,307.660 59.203 M304.559 61.700 C 302.807 63.721,302.287 64.400,302.490 64.400 C 302.607 64.400,303.367 63.590,304.179 62.600 C 305.681 60.766,305.979 60.063,304.559 61.700 M299.429 70.629 C 299.281 71.215,299.238 71.772,299.332 71.866 C 299.427 71.960,299.624 71.558,299.771 70.971 C 299.919 70.385,299.962 69.828,299.868 69.734 C 299.773 69.640,299.576 70.042,299.429 70.629 M322.400 70.511 C 322.400 70.587,322.985 71.078,323.700 71.601 C 324.504 72.190,324.784 72.287,324.433 71.855 C 323.900 71.199,322.400 70.207,322.400 70.511 M298.937 76.200 C 298.939 77.960,299.009 78.630,299.093 77.689 C 299.178 76.749,299.177 75.309,299.091 74.489 C 299.005 73.670,298.936 74.440,298.937 76.200 M325.714 76.200 C 325.717 77.300,325.795 77.703,325.887 77.095 C 325.979 76.486,325.977 75.586,325.882 75.095 C 325.787 74.603,325.711 75.100,325.714 76.200 M299.256 80.800 C 299.256 81.130,299.411 81.760,299.600 82.200 C 299.817 82.704,299.944 82.778,299.944 82.400 C 299.944 82.070,299.789 81.440,299.600 81.000 C 299.383 80.496,299.256 80.422,299.256 80.800 M318.900 82.676 C 319.285 82.776,319.915 82.776,320.300 82.676 C 320.685 82.575,320.370 82.493,319.600 82.493 C 318.830 82.493,318.515 82.575,318.900 82.676 M303.596 89.594 C 304.290 90.471,305.067 91.318,305.323 91.476 C 305.578 91.634,305.093 90.916,304.245 89.881 C 303.397 88.847,302.620 88.000,302.518 88.000 C 302.416 88.000,302.901 88.718,303.596 89.594 M333.600 90.916 C 332.390 92.070,330.950 93.334,330.400 93.725 C 329.438 94.408,329.450 94.408,330.697 93.733 C 331.829 93.120,336.483 88.787,335.986 88.808 C 335.884 88.812,334.810 89.761,333.600 90.916 M309.103 94.217 C 310.052 94.882,312.576 96.006,313.087 95.991 C 313.398 95.982,308.773 93.626,308.411 93.609 C 308.307 93.604,308.618 93.878,309.103 94.217 M147.099 96.171 C 141.656 98.113,138.422 103.108,138.091 110.085 C 137.979 112.458,137.837 114.400,137.777 114.400 C 137.716 114.400,136.526 113.810,135.133 113.088 C 132.103 111.519,130.088 110.797,128.772 110.809 C 128.237 110.813,129.240 111.310,131.000 111.913 C 144.405 116.504,150.785 130.423,145.491 143.529 L 144.471 146.053 145.622 147.363 C 151.245 153.768,143.157 161.789,136.970 155.942 L 135.741 154.780 133.570 155.773 C 132.377 156.319,130.410 157.032,129.200 157.357 C 127.373 157.847,127.217 157.952,128.281 157.974 C 129.544 158.000,130.148 157.811,133.496 156.343 C 136.377 155.080,137.746 156.264,138.149 160.366 C 138.705 166.020,142.836 171.265,147.956 172.815 C 148.530 172.989,134.122 173.147,115.938 173.166 L 82.876 173.200 81.138 172.300 C 78.907 171.145,78.740 170.971,77.684 168.704 L 76.800 166.809 76.800 134.200 C 76.800 98.316,76.712 99.652,79.229 97.374 C 81.146 95.639,80.299 95.679,115.200 95.657 C 143.566 95.638,148.374 95.716,147.099 96.171 M314.400 96.400 C 314.950 96.576,315.760 96.720,316.200 96.720 C 316.833 96.720,316.792 96.654,316.000 96.400 C 315.450 96.224,314.640 96.080,314.200 96.080 C 313.567 96.080,313.608 96.146,314.400 96.400 M323.200 96.400 C 322.396 96.657,322.357 96.723,323.000 96.732 C 323.440 96.738,324.160 96.589,324.600 96.400 C 325.619 95.962,324.568 95.962,323.200 96.400 M318.700 97.082 C 319.195 97.178,320.005 97.178,320.500 97.082 C 320.995 96.987,320.590 96.909,319.600 96.909 C 318.610 96.909,318.205 96.987,318.700 97.082 M119.800 110.400 C 119.360 110.589,118.503 110.756,117.895 110.772 C 117.287 110.787,116.477 110.957,116.095 111.148 C 115.713 111.340,113.991 112.186,112.270 113.029 C 108.512 114.868,102.832 120.193,102.807 121.900 C 102.803 122.175,102.620 122.400,102.400 122.400 C 102.180 122.400,102.000 122.582,102.000 122.804 C 102.000 123.027,101.651 123.972,101.224 124.904 C 95.832 136.684,102.068 151.730,114.400 156.698 C 114.950 156.919,115.903 157.303,116.519 157.550 C 117.134 157.798,118.214 157.979,118.919 157.954 C 119.696 157.925,119.885 157.840,119.400 157.736 C 109.949 155.715,102.790 148.874,100.410 139.588 C 96.744 125.288,108.483 110.840,123.800 110.799 C 126.532 110.791,127.610 110.665,127.200 110.400 C 126.465 109.925,120.905 109.925,119.800 110.400 M159.021 111.451 C 161.714 113.215,161.780 113.605,162.000 128.944 L 162.200 142.889 163.593 144.051 C 165.575 145.705,167.218 146.070,169.553 145.377 C 173.987 144.060,174.000 144.011,174.000 128.613 C 174.000 114.072,174.055 113.714,176.608 111.767 C 179.803 109.330,184.639 110.820,185.926 114.639 C 186.333 115.845,186.424 119.478,186.326 130.600 L 186.200 145.000 184.885 147.689 C 177.257 163.284,153.369 160.700,149.763 143.891 C 149.087 140.742,148.982 118.020,149.631 115.443 C 150.691 111.231,155.540 109.170,159.021 111.451 M200.864 111.646 C 203.453 113.489,203.400 113.021,203.400 134.231 C 203.400 152.233,203.352 153.551,202.654 154.847 C 200.357 159.114,194.016 159.086,191.800 154.799 C 190.862 152.986,190.907 115.726,191.850 113.904 C 193.567 110.584,197.862 109.508,200.864 111.646 M240.706 111.532 C 242.434 112.764,243.292 114.519,243.292 116.821 C 243.292 118.890,243.389 118.725,231.462 136.941 C 228.458 141.529,226.000 145.444,226.000 145.641 C 226.000 145.839,229.163 146.000,233.062 146.000 C 240.023 146.000,240.144 146.015,241.467 147.024 C 244.811 149.575,244.626 155.055,241.123 157.190 C 239.072 158.441,212.924 158.439,210.873 157.188 C 207.590 155.187,207.314 151.252,210.149 146.873 C 211.101 145.403,213.650 141.500,215.813 138.200 C 217.976 134.900,221.077 130.130,222.704 127.600 L 225.662 123.000 219.407 122.890 C 213.602 122.787,213.042 122.711,211.637 121.824 C 207.360 119.124,208.235 112.288,213.048 110.803 C 215.927 109.915,239.303 110.531,240.706 111.532 M119.389 123.616 C 110.044 127.212,109.673 140.835,118.813 144.767 C 123.149 146.633,126.885 146.252,125.205 144.115 C 121.296 139.146,127.262 132.369,132.904 135.370 C 134.996 136.482,135.202 136.397,135.194 134.433 C 135.160 126.455,126.828 120.753,119.389 123.616 M128.462 124.500 C 131.736 126.196,133.808 129.229,134.248 132.970 C 134.524 135.320,134.298 135.612,132.976 134.613 C 131.025 133.137,124.842 134.717,124.809 136.700 C 124.804 136.975,124.620 137.200,124.400 137.200 C 124.180 137.200,124.000 137.549,124.000 137.976 C 124.000 138.403,123.820 138.864,123.600 139.000 C 122.914 139.424,123.159 141.202,124.183 143.242 L 125.167 145.200 122.978 145.200 C 121.774 145.200,120.477 145.041,120.095 144.847 C 119.713 144.652,118.878 144.248,118.241 143.947 C 116.755 143.247,114.753 141.245,114.053 139.759 C 113.752 139.122,113.348 138.287,113.153 137.905 C 111.773 135.192,113.167 129.250,115.804 126.607 C 118.896 123.508,124.686 122.544,128.462 124.500 M307.867 151.867 C 307.417 152.317,307.549 238.321,308.000 238.600 C 308.266 238.764,308.400 224.204,308.400 195.224 C 308.400 171.231,308.340 151.600,308.267 151.600 C 308.193 151.600,308.013 151.720,307.867 151.867 M120.800 158.400 C 121.130 158.613,122.390 158.788,123.600 158.788 C 124.810 158.788,126.070 158.613,126.400 158.400 C 126.813 158.133,125.941 158.012,123.600 158.012 C 121.259 158.012,120.387 158.133,120.800 158.400 M78.181 344.800 C 78.181 352.830,78.234 356.115,78.299 352.100 C 78.365 348.085,78.365 341.515,78.299 337.500 C 78.234 333.485,78.181 336.770,78.181 344.800 M89.600 368.800 C 89.600 369.020,90.005 369.197,90.500 369.194 C 91.228 369.189,91.285 369.114,90.800 368.800 C 90.024 368.299,89.600 368.299,89.600 368.800 " stroke="none" fill="#74c3f9" fill-rule="evenodd"></path><path id="path4" d="M305.247 1.055 C 304.769 1.595,304.791 1.660,305.414 1.539 C 305.810 1.463,306.209 1.175,306.300 0.900 C 306.530 0.210,305.916 0.300,305.247 1.055 M301.600 2.000 C 300.796 2.257,300.757 2.323,301.400 2.332 C 301.840 2.338,302.560 2.189,303.000 2.000 C 304.019 1.562,302.968 1.562,301.600 2.000 M298.600 2.800 C 298.096 3.017,298.022 3.144,298.400 3.144 C 298.730 3.144,299.360 2.989,299.800 2.800 C 300.304 2.583,300.378 2.456,300.000 2.456 C 299.670 2.456,299.040 2.611,298.600 2.800 M268.181 19.700 L 266.600 21.400 268.300 19.819 C 269.881 18.348,270.184 18.000,269.881 18.000 C 269.816 18.000,269.051 18.765,268.181 19.700 M106.400 29.080 C 97.521 32.292,99.085 44.540,108.373 44.531 C 115.813 44.524,119.003 35.773,113.369 30.827 C 111.496 29.182,108.320 28.386,106.400 29.080 M80.378 31.100 L 79.000 32.600 80.596 31.200 C 81.473 30.430,82.268 29.755,82.362 29.700 C 82.456 29.645,82.359 29.600,82.145 29.600 C 81.932 29.600,81.137 30.275,80.378 31.100 M78.249 34.215 C 78.112 34.573,78.015 35.166,78.034 35.533 C 78.053 35.900,78.227 35.669,78.421 35.020 C 78.798 33.758,78.665 33.133,78.249 34.215 M94.093 36.800 C 94.093 37.570,94.175 37.885,94.276 37.500 C 94.376 37.115,94.376 36.485,94.276 36.100 C 94.175 35.715,94.093 36.030,94.093 36.800 M79.200 41.325 C 79.200 41.394,79.785 41.979,80.500 42.625 L 81.800 43.800 80.625 42.500 C 79.530 41.288,79.200 41.016,79.200 41.325 M369.970 133.437 C 369.436 134.008,367.920 135.278,366.600 136.260 C 365.280 137.241,363.930 138.262,363.600 138.528 C 360.463 141.053,347.916 147.600,346.214 147.600 C 345.902 147.600,345.536 147.780,345.400 148.000 C 345.264 148.220,344.724 148.400,344.200 148.400 C 343.676 148.400,343.136 148.580,343.000 148.800 C 342.864 149.020,342.324 149.200,341.800 149.200 C 341.276 149.200,340.748 149.360,340.627 149.556 C 340.506 149.751,339.821 150.012,339.104 150.134 C 338.387 150.256,336.900 150.549,335.800 150.784 C 334.700 151.020,332.186 151.400,330.213 151.627 C 328.239 151.855,326.529 152.147,326.413 152.275 C 326.296 152.403,327.145 152.388,328.300 152.240 L 330.400 151.972 330.406 247.886 C 330.410 302.136,330.565 344.041,330.763 344.354 C 331.283 345.174,337.248 339.480,340.563 335.000 C 341.214 334.120,342.434 332.739,343.273 331.931 C 344.113 331.124,344.800 330.269,344.800 330.032 C 344.800 329.795,345.520 328.859,346.400 327.952 C 347.280 327.045,348.000 326.127,348.000 325.912 C 348.000 325.697,348.495 325.044,349.100 324.460 C 349.705 323.877,350.462 322.893,350.781 322.274 C 351.101 321.655,351.866 320.621,352.481 319.978 C 353.097 319.334,353.600 318.626,353.600 318.404 C 353.600 318.182,353.780 318.000,354.000 318.000 C 354.220 318.000,354.400 317.812,354.400 317.583 C 354.400 317.354,354.760 316.780,355.200 316.308 C 355.640 315.836,356.000 315.213,356.000 314.925 C 356.000 314.636,356.168 314.400,356.373 314.400 C 356.578 314.400,356.854 314.061,356.985 313.648 C 357.116 313.234,357.578 312.486,358.012 311.986 C 358.445 311.487,358.800 310.745,358.800 310.339 C 358.800 309.932,358.980 309.600,359.200 309.600 C 359.420 309.600,359.600 309.364,359.600 309.075 C 359.600 308.787,359.960 308.164,360.400 307.692 C 360.840 307.220,361.200 306.646,361.200 306.417 C 361.200 306.188,361.380 306.000,361.600 306.000 C 361.820 306.000,362.000 305.640,362.000 305.200 C 362.000 304.760,362.180 304.400,362.400 304.400 C 362.620 304.400,362.800 304.164,362.800 303.875 C 362.800 303.587,363.160 302.964,363.600 302.492 C 364.040 302.020,364.400 301.356,364.400 301.017 C 364.400 300.678,364.580 300.400,364.800 300.400 C 365.020 300.400,365.200 300.040,365.200 299.600 C 365.200 299.160,365.380 298.800,365.600 298.800 C 365.820 298.800,366.000 298.440,366.000 298.000 C 366.000 297.560,366.180 297.200,366.400 297.200 C 366.620 297.200,366.800 296.840,366.800 296.400 C 366.800 295.960,366.980 295.600,367.200 295.600 C 367.420 295.600,367.600 295.240,367.600 294.800 C 367.600 294.360,367.780 294.000,368.000 294.000 C 368.220 294.000,368.400 293.640,368.400 293.200 C 368.400 292.760,368.535 292.399,368.700 292.397 C 369.059 292.393,370.000 290.456,370.000 289.720 C 370.000 289.434,370.136 289.200,370.302 289.200 C 370.469 289.200,370.840 288.615,371.129 287.900 C 371.417 287.185,371.821 286.287,372.026 285.905 C 372.232 285.523,372.400 284.938,372.400 284.605 C 372.400 284.272,372.547 284.000,372.728 284.000 C 372.908 284.000,373.300 283.100,373.600 282.000 C 373.900 280.900,374.286 280.000,374.459 280.000 C 374.631 280.000,374.892 279.100,375.038 278.000 C 375.184 276.900,375.460 276.000,375.652 276.000 C 375.843 276.000,376.000 275.550,376.000 275.000 C 376.000 274.450,376.180 274.000,376.400 274.000 C 376.620 274.000,376.800 273.550,376.800 273.000 C 376.800 272.450,376.980 272.000,377.200 272.000 C 377.420 272.000,377.600 271.561,377.600 271.024 C 377.600 270.487,377.780 269.936,378.000 269.800 C 378.220 269.664,378.400 269.113,378.400 268.576 C 378.400 268.039,378.580 267.600,378.800 267.600 C 379.020 267.600,379.200 266.880,379.200 266.000 C 379.200 265.120,379.380 264.400,379.600 264.400 C 379.820 264.400,380.000 263.860,380.000 263.200 C 380.000 262.540,380.180 262.000,380.400 262.000 C 380.620 262.000,380.800 261.280,380.800 260.400 C 380.800 259.520,380.980 258.800,381.200 258.800 C 381.420 258.800,381.600 258.170,381.600 257.400 C 381.600 256.630,381.780 256.000,382.000 256.000 C 382.220 256.000,382.400 255.381,382.400 254.624 C 382.400 253.867,382.580 253.136,382.800 253.000 C 383.020 252.864,383.200 252.043,383.200 251.176 C 383.200 250.309,383.380 249.600,383.600 249.600 C 383.820 249.600,384.000 248.711,384.000 247.624 C 384.000 246.537,384.180 245.536,384.400 245.400 C 384.620 245.264,384.800 244.364,384.800 243.400 C 384.800 242.436,384.980 241.536,385.200 241.400 C 385.420 241.264,385.600 240.094,385.600 238.800 C 385.600 237.506,385.780 236.336,386.000 236.200 C 386.220 236.064,386.400 234.613,386.400 232.976 C 386.400 231.259,386.569 230.000,386.800 230.000 C 387.043 230.000,387.200 228.227,387.200 225.480 C 387.200 222.913,387.378 220.782,387.612 220.548 C 388.367 219.793,387.550 187.200,386.776 187.200 C 386.569 187.200,386.400 185.760,386.400 184.000 C 386.400 182.133,386.233 180.800,386.000 180.800 C 385.778 180.800,385.600 179.741,385.600 178.424 C 385.600 177.117,385.420 175.936,385.200 175.800 C 384.980 175.664,384.800 174.764,384.800 173.800 C 384.800 172.836,384.620 171.936,384.400 171.800 C 384.180 171.664,384.000 170.663,384.000 169.576 C 384.000 168.489,383.820 167.600,383.600 167.600 C 383.380 167.600,383.200 166.891,383.200 166.024 C 383.200 165.157,383.020 164.336,382.800 164.200 C 382.580 164.064,382.400 163.243,382.400 162.376 C 382.400 161.509,382.220 160.800,382.000 160.800 C 381.780 160.800,381.600 160.260,381.600 159.600 C 381.600 158.940,381.420 158.400,381.200 158.400 C 380.980 158.400,380.800 157.680,380.800 156.800 C 380.800 155.920,380.620 155.200,380.400 155.200 C 380.180 155.200,380.000 154.660,380.000 154.000 C 380.000 153.340,379.820 152.800,379.600 152.800 C 379.380 152.800,379.200 152.258,379.200 151.595 C 379.200 150.436,379.085 150.084,378.062 148.105 C 377.808 147.613,377.600 146.758,377.600 146.205 C 377.600 145.652,377.420 145.200,377.200 145.200 C 376.980 145.200,376.800 144.750,376.800 144.200 C 376.800 143.650,376.620 143.200,376.400 143.200 C 376.180 143.200,376.000 142.750,376.000 142.200 C 376.000 141.650,375.840 141.200,375.644 141.200 C 375.448 141.200,375.194 140.615,375.081 139.900 C 374.158 134.101,371.954 131.314,369.970 133.437 M14.800 143.200 C 14.500 144.300,14.108 145.200,13.928 145.200 C 13.747 145.200,13.600 145.740,13.600 146.400 C 13.600 147.060,13.440 147.600,13.245 147.600 C 12.910 147.600,12.657 148.490,12.137 151.504 C 12.013 152.221,11.751 152.906,11.556 153.027 C 11.360 153.148,11.200 153.676,11.200 154.200 C 11.200 154.724,11.020 155.264,10.800 155.400 C 10.580 155.536,10.400 156.267,10.400 157.024 C 10.400 157.806,10.198 158.400,9.933 158.400 C 9.677 158.400,9.570 158.504,9.697 158.630 C 9.823 158.757,9.753 159.432,9.542 160.130 C 8.950 162.080,8.807 162.814,8.536 165.300 C 8.399 166.565,8.132 167.600,7.943 167.600 C 7.754 167.600,7.600 168.500,7.600 169.600 C 7.600 170.700,7.420 171.600,7.200 171.600 C 6.980 171.600,6.800 172.500,6.800 173.600 C 6.800 174.700,6.620 175.600,6.400 175.600 C 6.175 175.600,6.000 176.725,6.000 178.176 C 6.000 179.593,5.820 180.864,5.600 181.000 C 5.380 181.136,5.200 182.576,5.200 184.200 C 5.200 185.824,5.020 187.264,4.800 187.400 C 4.575 187.539,4.400 189.471,4.400 191.824 C 4.400 194.341,4.241 196.000,4.000 196.000 C 3.452 196.000,3.452 220.262,4.000 220.600 C 4.227 220.740,4.400 222.730,4.400 225.200 C 4.400 227.670,4.573 229.660,4.800 229.800 C 5.020 229.936,5.200 231.477,5.200 233.224 C 5.200 235.075,5.367 236.400,5.600 236.400 C 5.820 236.400,6.000 237.379,6.000 238.576 C 6.000 239.773,6.180 240.864,6.400 241.000 C 6.620 241.136,6.800 242.227,6.800 243.424 C 6.800 244.621,6.980 245.600,7.200 245.600 C 7.420 245.600,7.600 246.399,7.600 247.376 C 7.600 248.353,7.780 249.264,8.000 249.400 C 8.220 249.536,8.400 250.411,8.400 251.344 C 8.400 252.277,8.616 253.256,8.880 253.520 C 9.144 253.784,9.250 254.000,9.116 254.000 C 8.982 254.000,9.118 254.931,9.418 256.068 C 9.718 257.205,9.871 258.285,9.758 258.468 C 9.645 258.651,9.743 258.800,9.976 258.800 C 10.209 258.800,10.400 259.192,10.400 259.672 C 10.400 260.592,11.060 262.928,11.649 264.095 C 11.842 264.477,12.000 265.242,12.000 265.795 C 12.000 266.348,12.180 266.800,12.400 266.800 C 12.620 266.800,12.800 267.342,12.800 268.005 C 12.800 268.668,12.980 269.568,13.200 270.005 C 13.420 270.442,13.780 271.158,14.000 271.595 C 14.220 272.032,14.400 272.662,14.400 272.995 C 14.400 273.328,14.580 273.600,14.800 273.600 C 15.020 273.600,15.200 274.140,15.200 274.800 C 15.200 276.207,15.800 276.397,16.148 275.100 C 16.463 273.924,16.463 143.276,16.148 142.100 C 15.775 140.708,15.394 141.019,14.800 143.200 M310.900 152.276 C 311.285 152.376,311.915 152.376,312.300 152.276 C 312.685 152.175,312.370 152.093,311.600 152.093 C 310.830 152.093,310.515 152.175,310.900 152.276 M81.150 326.857 C 78.473 328.413,78.450 328.571,78.376 345.591 C 78.340 353.980,78.449 360.969,78.619 361.122 C 78.789 361.275,78.799 361.175,78.641 360.900 C 78.482 360.625,78.552 360.400,78.795 360.400 C 79.326 360.400,81.231 362.243,81.157 362.686 C 81.023 363.497,81.253 363.743,81.637 363.200 C 81.956 362.748,82.111 362.724,82.264 363.100 C 82.375 363.375,82.682 363.600,82.945 363.600 C 83.208 363.600,83.683 363.960,84.000 364.400 C 84.317 364.840,84.807 365.200,85.088 365.200 C 85.370 365.200,85.600 365.380,85.600 365.600 C 85.600 365.820,85.870 366.000,86.200 366.000 C 86.530 366.000,86.779 366.135,86.753 366.300 C 86.595 367.298,86.819 367.789,87.176 367.226 C 87.616 366.529,88.800 367.306,88.800 368.292 C 88.800 368.655,89.033 368.796,89.400 368.655 C 90.310 368.306,91.200 368.794,91.200 369.643 C 91.200 370.464,91.793 370.659,92.215 369.976 C 92.383 369.703,92.644 369.781,92.947 370.195 C 93.565 371.041,122.739 371.133,123.278 370.291 C 123.450 370.021,123.549 359.990,123.496 348.000 L 123.400 326.200 103.000 326.107 C 82.896 326.016,82.579 326.027,81.150 326.857 " stroke="none" fill="#33c374" fill-rule="evenodd"></path><path id="path5" d="M314.175 36.500 L 313.000 37.800 314.300 36.625 C 315.015 35.979,315.600 35.394,315.600 35.325 C 315.600 35.016,315.270 35.288,314.175 36.500 M177.100 51.900 C 128.525 51.971,107.200 52.131,107.200 52.423 C 107.200 52.655,106.513 53.869,105.673 55.122 C 103.907 57.757,101.962 61.810,101.221 64.400 C 100.938 65.390,100.548 66.722,100.353 67.360 C 98.198 74.435,102.218 87.578,108.292 93.313 L 109.470 94.426 177.035 94.666 C 238.481 94.884,244.670 94.964,245.369 95.553 C 245.866 95.971,246.024 96.007,245.816 95.653 C 242.630 90.231,242.270 69.947,245.157 58.600 C 245.381 57.720,245.676 56.460,245.812 55.800 C 245.949 55.140,246.210 54.240,246.394 53.800 C 246.780 52.875,247.216 51.554,247.087 51.699 C 247.039 51.753,215.545 51.844,177.100 51.900 M305.367 60.636 L 303.800 62.073 305.500 60.803 C 307.017 59.669,307.476 59.200,307.067 59.200 C 306.993 59.200,306.228 59.846,305.367 60.636 M302.126 64.321 C 300.726 66.428,299.996 67.788,300.007 68.274 C 300.011 68.453,300.554 67.621,301.214 66.424 C 301.873 65.228,302.709 63.922,303.071 63.522 C 303.432 63.122,303.649 62.716,303.552 62.619 C 303.455 62.522,302.813 63.288,302.126 64.321 M298.657 72.700 C 298.354 74.530,298.403 78.575,298.747 80.177 C 298.886 80.825,299.000 79.070,299.000 76.277 C 299.000 70.603,299.001 70.616,298.657 72.700 M313.301 76.200 C 313.305 77.080,313.387 77.393,313.483 76.895 C 313.579 76.398,313.575 75.678,313.475 75.295 C 313.375 74.913,313.296 75.320,313.301 76.200 M318.700 82.282 C 319.195 82.378,320.005 82.378,320.500 82.282 C 320.995 82.187,320.590 82.109,319.600 82.109 C 318.610 82.109,318.205 82.187,318.700 82.282 M300.011 84.200 C 300.005 84.936,302.303 88.582,303.793 90.200 L 305.266 91.800 303.825 89.949 C 303.032 88.930,301.850 87.130,301.199 85.949 C 300.547 84.767,300.013 83.980,300.011 84.200 M333.785 91.300 L 331.800 93.400 333.900 91.415 C 335.851 89.571,336.183 89.200,335.885 89.200 C 335.822 89.200,334.877 90.145,333.785 91.300 M314.821 96.821 C 315.355 97.160,318.342 97.381,317.967 97.055 C 317.875 96.975,316.999 96.808,316.021 96.682 C 314.870 96.535,314.446 96.584,314.821 96.821 M322.600 96.800 L 321.000 97.086 322.400 97.137 C 323.170 97.165,324.070 97.013,324.400 96.800 C 325.055 96.377,324.962 96.377,322.600 96.800 M156.200 110.809 C 158.665 111.417,159.569 112.025,160.622 113.781 C 161.156 114.672,161.594 115.241,161.596 115.047 C 161.615 113.269,158.807 110.906,156.328 110.616 L 154.600 110.414 156.200 110.809 M178.600 110.668 C 178.160 110.783,177.635 111.034,177.434 111.225 C 177.233 111.416,177.740 111.387,178.560 111.160 C 181.297 110.404,184.380 111.751,185.428 114.159 C 185.725 114.841,185.976 115.125,185.984 114.789 C 186.044 112.448,181.497 109.910,178.600 110.668 M197.999 110.853 C 200.294 111.406,201.760 112.455,202.401 114.002 C 202.680 114.675,202.987 115.147,203.083 115.050 C 204.074 114.060,200.427 110.911,197.958 110.624 L 196.200 110.419 197.999 110.853 M226.639 110.774 C 240.372 111.016,239.911 110.944,241.936 113.171 C 242.738 114.053,242.809 114.076,242.436 113.328 C 241.118 110.684,240.653 110.603,226.600 110.574 L 213.800 110.547 226.639 110.774 M120.100 111.087 C 120.705 111.178,121.695 111.178,122.300 111.087 C 122.905 110.995,122.410 110.920,121.200 110.920 C 119.990 110.920,119.495 110.995,120.100 111.087 M124.900 111.087 C 125.505 111.178,126.495 111.178,127.100 111.087 C 127.705 110.995,127.210 110.920,126.000 110.920 C 124.790 110.920,124.295 110.995,124.900 111.087 M194.176 111.422 C 193.412 112.034,193.413 112.038,194.200 111.676 C 194.640 111.474,195.270 111.208,195.600 111.086 C 196.118 110.893,196.115 110.859,195.576 110.832 C 195.234 110.814,194.604 111.080,194.176 111.422 M211.074 112.100 C 210.351 112.815,210.128 113.097,210.579 112.727 C 211.031 112.356,211.940 111.772,212.600 111.429 C 213.391 111.017,213.560 110.804,213.094 110.802 C 212.706 110.801,211.797 111.385,211.074 112.100 M116.800 111.600 C 115.976 111.864,115.941 111.926,116.600 111.954 C 117.040 111.973,117.670 111.813,118.000 111.600 C 118.701 111.147,118.214 111.147,116.800 111.600 M175.729 112.500 C 175.284 112.995,174.776 113.670,174.601 114.000 C 174.263 114.637,174.355 114.550,175.976 112.700 C 176.506 112.095,176.849 111.600,176.739 111.600 C 176.629 111.600,176.175 112.005,175.729 112.500 M192.073 113.400 C 191.822 113.950,191.683 114.400,191.763 114.400 C 191.843 114.400,192.203 113.950,192.563 113.400 C 192.924 112.850,193.063 112.400,192.873 112.400 C 192.684 112.400,192.323 112.850,192.073 113.400 M209.052 114.900 C 208.375 117.428,209.339 120.368,211.233 121.549 C 211.982 122.017,211.909 121.856,210.911 120.840 C 209.493 119.395,208.971 117.547,209.374 115.400 C 209.665 113.849,209.431 113.486,209.052 114.900 M109.076 115.700 C 107.830 116.933,107.825 116.949,108.981 116.003 C 109.652 115.455,110.371 114.870,110.580 114.703 C 110.789 114.536,110.831 114.400,110.674 114.400 C 110.517 114.400,109.798 114.985,109.076 115.700 M242.915 116.426 C 242.907 118.078,242.652 119.057,241.924 120.226 C 240.440 122.609,240.338 122.800,240.542 122.800 C 241.699 122.800,243.649 117.371,243.200 115.400 C 242.989 114.474,242.924 114.708,242.915 116.426 M149.450 116.050 C 149.128 117.659,149.214 141.423,149.547 142.980 C 149.686 143.629,149.800 137.554,149.800 129.480 C 149.800 121.406,149.778 114.800,149.750 114.800 C 149.722 114.800,149.588 115.363,149.450 116.050 M191.385 134.400 C 191.385 145.290,191.437 149.745,191.500 144.300 C 191.563 138.855,191.563 129.945,191.500 124.500 C 191.437 119.055,191.385 123.510,191.385 134.400 M174.000 128.680 C 173.890 136.205,173.937 142.223,174.105 142.055 C 174.274 141.887,174.363 135.730,174.305 128.375 L 174.199 115.000 174.000 128.680 M139.440 116.954 C 140.341 117.730,141.766 119.364,142.606 120.583 C 144.261 122.985,144.883 123.541,143.726 121.583 C 142.669 119.793,139.661 116.455,138.665 115.966 C 138.189 115.732,138.538 116.177,139.440 116.954 M186.180 129.200 C 186.180 136.790,186.234 139.895,186.299 136.100 C 186.365 132.305,186.365 126.095,186.299 122.300 C 186.234 118.505,186.180 121.610,186.180 129.200 M161.690 129.253 L 161.600 142.707 163.201 144.153 C 164.082 144.949,165.009 145.600,165.261 145.600 C 165.514 145.600,164.973 145.059,164.060 144.397 C 163.147 143.736,162.361 143.151,162.313 143.097 C 162.266 143.044,162.126 136.880,162.003 129.400 L 161.779 115.800 161.690 129.253 M203.384 134.400 C 203.384 144.410,203.436 148.505,203.500 143.500 C 203.563 138.495,203.563 130.305,203.500 125.300 C 203.436 120.295,203.384 124.390,203.384 134.400 M212.750 122.511 C 212.921 122.682,215.838 122.771,219.231 122.710 L 225.400 122.598 218.919 122.399 C 215.354 122.289,212.578 122.340,212.750 122.511 M122.500 122.687 C 123.105 122.778,124.095 122.778,124.700 122.687 C 125.305 122.595,124.810 122.520,123.600 122.520 C 122.390 122.520,121.895 122.595,122.500 122.687 M224.892 124.135 C 224.459 124.869,223.789 125.994,223.405 126.635 L 222.705 127.800 223.533 126.800 C 224.479 125.657,226.144 122.800,225.865 122.800 C 225.763 122.800,225.325 123.401,224.892 124.135 M237.925 126.500 C 235.395 130.328,235.106 130.800,235.297 130.800 C 235.464 130.800,236.559 129.223,238.977 125.500 C 239.370 124.895,239.607 124.400,239.503 124.400 C 239.398 124.400,238.689 125.345,237.925 126.500 M131.600 126.200 C 132.346 126.970,133.047 127.600,133.157 127.600 C 133.267 127.600,132.746 126.970,132.000 126.200 C 131.254 125.430,130.553 124.800,130.443 124.800 C 130.333 124.800,130.854 125.430,131.600 126.200 M146.034 127.400 C 146.022 127.840,146.187 128.470,146.400 128.800 C 146.914 129.595,146.914 128.596,146.400 127.400 L 146.056 126.600 146.034 127.400 M100.249 129.415 C 100.112 129.773,100.018 130.456,100.041 130.933 C 100.067 131.481,100.203 131.286,100.410 130.403 C 100.760 128.916,100.665 128.333,100.249 129.415 M134.456 130.400 C 134.456 130.730,134.611 131.360,134.800 131.800 C 135.017 132.304,135.144 132.378,135.144 132.000 C 135.144 131.670,134.989 131.040,134.800 130.600 C 134.583 130.096,134.456 130.022,134.456 130.400 M146.920 134.200 C 146.925 138.128,146.962 138.362,147.271 136.378 C 147.466 135.121,147.464 133.210,147.266 131.978 C 146.955 130.049,146.916 130.302,146.920 134.200 M234.093 132.300 C 233.057 133.796,232.721 134.400,232.923 134.400 C 233.017 134.400,233.570 133.680,234.153 132.800 C 235.336 131.012,235.284 130.579,234.093 132.300 M111.843 132.233 C 111.506 133.109,111.549 136.101,111.906 136.662 C 112.068 136.916,112.200 135.881,112.200 134.362 C 112.200 131.341,112.195 131.314,111.843 132.233 M267.112 150.260 L 267.000 168.659 265.954 170.239 C 265.347 171.156,264.173 172.183,263.154 172.689 L 261.400 173.560 193.928 173.680 C 156.819 173.746,126.698 173.935,126.992 174.100 C 127.287 174.264,128.752 175.884,130.250 177.700 C 134.260 182.562,137.089 185.669,143.886 192.674 L 145.972 194.824 194.486 194.550 L 243.000 194.275 244.600 195.110 C 245.480 195.569,250.068 199.827,254.797 204.572 L 263.393 213.200 265.397 213.200 C 274.838 213.202,284.561 218.255,295.920 229.064 C 299.154 232.142,303.194 235.873,304.899 237.356 L 307.997 240.053 308.100 302.326 L 308.203 364.600 308.301 301.780 C 308.367 259.932,308.265 238.825,307.996 238.556 C 307.729 238.289,307.628 223.587,307.696 194.876 L 307.800 151.600 306.846 151.600 C 306.322 151.600,305.152 151.406,304.246 151.168 C 303.341 150.931,301.880 150.558,301.000 150.339 C 293.513 148.477,281.298 143.222,278.437 140.633 C 278.052 140.285,277.623 140.000,277.485 140.000 C 277.068 140.000,270.313 134.836,268.712 133.294 L 267.224 131.861 267.112 150.260 M215.314 138.900 C 211.834 144.267,211.259 145.222,211.885 144.600 C 212.106 144.380,213.630 142.130,215.272 139.600 C 218.806 134.153,218.899 134.000,218.670 134.000 C 218.572 134.000,217.062 136.205,215.314 138.900 M129.300 134.676 C 129.685 134.776,130.315 134.776,130.700 134.676 C 131.085 134.575,130.770 134.493,130.000 134.493 C 129.230 134.493,128.915 134.575,129.300 134.676 M229.059 139.995 C 228.036 141.533,227.200 142.925,227.200 143.090 C 227.200 143.255,227.800 142.492,228.534 141.395 C 230.835 137.955,231.298 137.200,231.105 137.200 C 231.002 137.200,230.081 138.458,229.059 139.995 M124.101 140.600 C 124.105 141.480,124.187 141.793,124.283 141.295 C 124.379 140.798,124.375 140.078,124.275 139.695 C 124.175 139.313,124.096 139.720,124.101 140.600 M53.800 141.226 C 47.897 141.785,38.869 143.748,38.572 144.538 C 38.182 145.579,38.209 318.395,38.600 318.545 C 38.866 318.647,38.966 289.609,38.897 231.796 L 38.795 144.895 39.697 144.620 C 43.289 143.529,45.400 143.035,49.600 142.307 C 52.838 141.745,70.517 141.703,73.900 142.249 C 75.275 142.471,76.400 142.530,76.400 142.379 C 76.400 141.304,61.185 140.528,53.800 141.226 M115.200 142.600 C 115.946 143.370,116.647 144.000,116.757 144.000 C 116.867 144.000,116.346 143.370,115.600 142.600 C 114.854 141.830,114.153 141.200,114.043 141.200 C 113.933 141.200,114.454 141.830,115.200 142.600 M172.716 143.681 C 172.347 144.136,171.089 144.838,169.922 145.241 C 168.755 145.644,168.160 145.976,168.600 145.978 C 170.251 145.987,174.174 143.640,173.550 143.017 C 173.460 142.927,173.085 143.226,172.716 143.681 M185.654 144.267 C 185.625 144.744,185.496 145.464,185.370 145.867 C 185.152 146.561,185.164 146.562,185.596 145.888 C 185.847 145.497,185.975 144.777,185.881 144.288 C 185.709 143.401,185.709 143.401,185.654 144.267 M226.085 144.413 C 225.818 144.840,225.607 145.417,225.616 145.695 C 225.625 145.973,225.909 145.689,226.247 145.065 C 226.950 143.768,226.818 143.238,226.085 144.413 M209.817 147.401 C 208.311 149.755,207.732 152.046,208.277 153.494 C 208.525 154.154,208.617 153.788,208.628 152.094 C 208.640 150.137,208.861 149.463,210.133 147.500 C 210.953 146.235,211.535 145.200,211.425 145.200 C 211.315 145.200,210.591 146.190,209.817 147.401 M144.400 146.186 C 144.400 146.329,144.932 147.111,145.582 147.923 C 147.086 149.802,147.488 152.135,146.653 154.136 C 146.309 154.957,146.197 155.525,146.403 155.398 C 147.081 154.979,147.709 152.105,147.438 150.659 C 147.218 149.490,144.400 145.339,144.400 146.186 M240.414 146.900 C 241.395 147.395,242.396 148.208,242.639 148.707 C 243.261 149.985,243.586 150.232,243.323 149.228 C 243.037 148.135,240.458 146.000,239.424 146.000 C 238.926 146.000,239.294 146.335,240.414 146.900 M184.800 147.093 C 184.800 147.328,184.182 148.438,183.427 149.560 C 182.672 150.682,182.184 151.600,182.343 151.600 C 182.795 151.600,185.342 147.208,185.056 146.922 C 184.915 146.782,184.800 146.859,184.800 147.093 M150.804 147.320 C 150.780 149.366,157.749 156.414,159.778 156.396 C 160.010 156.394,159.390 155.919,158.400 155.341 C 155.888 153.875,153.335 151.358,151.967 149.000 C 151.329 147.900,150.806 147.144,150.804 147.320 M106.400 150.544 C 107.390 151.600,108.740 152.840,109.400 153.297 C 110.790 154.261,110.679 154.144,107.200 150.984 C 104.889 148.885,104.800 148.836,106.400 150.544 M243.701 151.800 C 243.705 152.680,243.787 152.993,243.883 152.495 C 243.979 151.998,243.975 151.278,243.875 150.895 C 243.775 150.513,243.696 150.920,243.701 151.800 M179.969 153.438 C 179.678 153.789,178.530 154.597,177.420 155.234 C 176.309 155.871,175.590 156.394,175.822 156.396 C 176.319 156.401,179.854 154.203,180.683 153.375 C 180.999 153.059,181.086 152.800,180.878 152.800 C 180.669 152.800,180.260 153.087,179.969 153.438 M111.600 154.764 C 112.491 155.471,114.000 156.124,114.000 155.803 C 114.000 155.736,113.235 155.296,112.300 154.825 C 110.733 154.037,110.678 154.032,111.600 154.764 M191.975 155.153 C 192.758 156.617,195.048 158.073,196.276 157.889 C 197.352 157.727,197.345 157.717,196.100 157.660 C 195.159 157.617,194.350 157.150,193.170 155.970 C 192.273 155.073,191.735 154.706,191.975 155.153 M209.169 155.521 C 209.831 156.787,211.953 158.006,213.400 157.952 C 214.178 157.923,214.318 157.848,213.800 157.738 C 213.360 157.645,212.593 157.482,212.095 157.376 C 211.597 157.269,210.627 156.601,209.939 155.891 C 208.987 154.908,208.803 154.820,209.169 155.521 M136.998 155.937 C 137.434 156.452,138.153 157.059,138.596 157.286 C 139.445 157.721,139.321 157.587,137.403 155.994 C 136.248 155.035,136.234 155.033,136.998 155.937 M201.170 156.253 C 200.245 157.256,200.241 157.280,201.092 156.761 C 201.583 156.462,202.072 155.988,202.180 155.709 C 202.466 154.962,202.252 155.077,201.170 156.253 M241.241 156.634 C 240.493 157.165,239.413 157.625,238.841 157.654 C 237.938 157.702,237.916 157.732,238.673 157.879 C 239.635 158.066,241.567 157.204,242.378 156.226 C 243.058 155.407,242.876 155.472,241.241 156.634 M144.400 156.836 C 143.736 157.379,143.669 157.515,144.200 157.240 C 145.505 156.566,146.228 156.012,145.800 156.015 C 145.580 156.017,144.950 156.386,144.400 156.836 M173.200 157.021 C 172.210 157.333,170.680 157.618,169.800 157.654 C 168.421 157.711,168.366 157.745,169.400 157.898 C 170.709 158.092,174.713 157.265,175.042 156.732 C 175.155 156.549,175.192 156.412,175.124 156.427 C 175.056 156.441,174.190 156.709,173.200 157.021 M128.600 157.200 C 128.096 157.417,128.022 157.544,128.400 157.544 C 128.730 157.544,129.360 157.389,129.800 157.200 C 130.304 156.983,130.378 156.856,130.000 156.856 C 129.670 156.856,129.040 157.011,128.600 157.200 M162.400 157.366 C 163.170 157.681,164.610 157.927,165.600 157.913 L 167.400 157.887 165.400 157.610 C 164.300 157.458,162.860 157.211,162.200 157.063 C 161.120 156.820,161.140 156.850,162.400 157.366 M198.600 157.600 L 197.400 157.905 198.476 157.953 C 199.068 157.979,199.664 157.820,199.800 157.600 C 199.936 157.380,199.992 157.221,199.924 157.247 C 199.856 157.273,199.260 157.432,198.600 157.600 M121.700 157.894 C 122.745 157.976,124.455 157.976,125.500 157.894 C 126.545 157.812,125.690 157.744,123.600 157.744 C 121.510 157.744,120.655 157.812,121.700 157.894 M140.505 157.887 C 141.114 157.979,142.014 157.977,142.505 157.882 C 142.997 157.787,142.500 157.711,141.400 157.714 C 140.300 157.717,139.897 157.795,140.505 157.887 M78.400 171.400 C 79.146 172.170,79.847 172.800,79.957 172.800 C 80.067 172.800,79.546 172.170,78.800 171.400 C 78.054 170.630,77.353 170.000,77.243 170.000 C 77.133 170.000,77.654 170.630,78.400 171.400 M93.900 173.900 C 99.235 173.963,107.965 173.963,113.300 173.900 C 118.635 173.837,114.270 173.785,103.600 173.785 C 92.930 173.785,88.565 173.837,93.900 173.900 M124.587 216.800 C 124.587 229.010,124.638 234.005,124.700 227.900 C 124.762 221.795,124.762 211.805,124.700 205.700 C 124.638 199.595,124.587 204.590,124.587 216.800 M79.789 327.389 C 78.805 328.374,78.008 329.499,78.018 329.889 C 78.028 330.323,78.343 330.018,78.825 329.104 C 80.417 326.088,79.413 326.224,101.782 325.993 L 121.800 325.785 101.689 325.693 L 81.579 325.600 79.789 327.389 M122.900 325.876 C 123.556 326.047,123.600 327.460,123.600 348.429 L 123.600 370.800 109.300 370.895 L 95.000 370.989 109.163 371.100 C 121.921 371.199,123.399 371.144,124.063 370.543 C 125.240 369.478,125.205 326.645,124.026 326.014 C 123.601 325.786,123.016 325.621,122.726 325.646 C 122.437 325.672,122.515 325.775,122.900 325.876 M79.200 361.429 C 79.200 361.853,80.436 362.897,80.667 362.667 C 80.792 362.541,80.617 362.160,80.276 361.819 C 79.641 361.184,79.200 361.024,79.200 361.429 M82.400 363.904 C 82.400 364.071,82.760 364.432,83.200 364.707 C 84.130 365.288,84.254 364.997,83.429 364.171 C 82.798 363.541,82.400 363.437,82.400 363.904 M87.200 367.029 C 87.200 367.453,88.436 368.497,88.667 368.267 C 88.792 368.141,88.617 367.760,88.276 367.419 C 87.641 366.784,87.200 366.624,87.200 367.029 " stroke="none" fill="#9bdbfb" fill-rule="evenodd"></path></g></svg>