<?xml version="1.0" ?><!DOCTYPE svg  PUBLIC '-//W3C//DTD SVG 1.1//EN'  'http://www.w3.org/Graphics/SVG/1.1/DTD/svg11.dtd'><svg height="32px" style="fill-rule:evenodd;clip-rule:evenodd;stroke-linejoin:round;stroke-miterlimit:2;" version="1.1" width="32px" xml:space="preserve" xmlns="http://www.w3.org/2000/svg" xmlns:serif="http://www.serif.com/" xmlns:xlink="http://www.w3.org/1999/xlink"><path d="M20,21c0.126,0 0.246,-0.048 0.335,-0.133l0.809,-0.776c-0,-0 6.435,-0 6.435,-0c0.785,-0 1.421,-0.611 1.421,-1.364c-0,-1.325 -0,-3.808 -0,-5.454c0,-0.362 -0.15,-0.709 -0.416,-0.965c-0.267,-0.255 -0.628,-0.399 -1.005,-0.399c-0,0 -6.555,0 -6.555,0c0,0 -2.769,-0.886 -2.769,-0.886c-0.048,-0.015 -0.099,-0.023 -0.15,-0.023l-6.631,-0c-0.262,-0 -0.474,0.203 -0.474,0.454l-0,9.091c-0,0.251 0.212,0.455 0.474,0.455l8.526,-0Z" style="fill:#fbeeac;"/><path d="M7.5,11l0,9.691c-0,0 -1.724,0.862 -1.724,0.862c-0.169,0.084 -0.276,0.258 -0.276,0.447c0,4.159 3.341,6.5 7.5,6.5c4.159,0 7.5,-2.341 7.5,-6.5c0,-4.271 -2.498,-5.689 -3.146,-6.338c-0.023,-0.022 -0.047,-0.043 -0.074,-0.06l-1.28,-0.867l-0,-3.235c0.133,0 0.26,-0.053 0.354,-0.146c0.093,-0.094 0.146,-0.221 0.146,-0.354l-0,-1.847l0.88,-1.321c0.307,-0.461 0.335,-1.052 0.074,-1.54c-0.261,-0.488 -0.769,-0.792 -1.322,-0.792c-2.337,-0 -6.3,-0 -8.514,-0c-0.52,0 -1.003,0.269 -1.276,0.711c-0.273,0.443 -0.298,0.995 -0.066,1.46c0,-0 1.224,2.447 1.224,2.447l-0,0.882Z" style="fill:#8ac4d0;"/><path d="M3.995,12.818c-0.573,0.159 -0.995,0.697 -0.995,1.336l0,0.923c0,0.639 0.422,1.176 0.995,1.336c-0.062,0.161 -0.095,0.334 -0.095,0.51l0,0.923c0,0.639 0.421,1.176 0.995,1.336c-0.061,0.158 -0.095,0.33 -0.095,0.51l0,0.923c0,0.765 0.604,1.385 1.35,1.385c1.198,-0 3.302,-0 4.5,-0c0.746,0 1.35,-0.62 1.35,-1.385l-0,-0.923c-0,-0.354 -0.13,-0.678 -0.344,-0.923c0.214,-0.245 0.344,-0.568 0.344,-0.923l-0,-0.923c-0,-0.355 -0.13,-0.678 -0.344,-0.923c0.214,-0.245 0.344,-0.568 0.344,-0.923l0,-0.923c-0,-0.355 -0.13,-0.678 -0.344,-0.923c0.214,-0.245 0.344,-0.569 0.344,-0.923l-0,-0.923c-0,-0.765 -0.604,-1.385 -1.35,-1.385l-5.4,-0c-0.358,-0 -0.701,0.146 -0.955,0.406c-0.253,0.259 -0.395,0.611 -0.395,0.979l0,0.923c0,0.176 0.033,0.349 0.095,0.51Zm12.88,-3.802l-0.75,-0c-0.298,-0 -0.585,0.137 -0.796,0.382c-0.21,0.246 -0.329,0.578 -0.329,0.925c0,1.162 0,3.208 0,4.37c-0,0.347 0.119,0.679 0.329,0.924c0.211,0.245 0.498,0.383 0.796,0.383l0.75,-0c0.298,-0 0.585,-0.138 0.796,-0.383c0.21,-0.245 0.329,-0.577 0.329,-0.924c-0,-1.162 -0,-3.208 -0,-4.37c0,-0.347 -0.119,-0.679 -0.329,-0.925c-0.211,-0.245 -0.498,-0.382 -0.796,-0.382Z" style="fill:#fbeeac;"/><path d="M7.191,9.5l-2.191,0c-0.398,-0 -0.779,0.158 -1.061,0.439c-0.281,0.282 -0.439,0.663 -0.439,1.061l0,1c0,0.191 0.036,0.378 0.106,0.552c-0.638,0.174 -1.106,0.756 -1.106,1.448l0,1c0,0.692 0.468,1.274 1.105,1.448c-0.069,0.174 -0.105,0.361 -0.105,0.552l0,1c0,0.692 0.468,1.274 1.105,1.447c-0.068,0.171 -0.105,0.358 -0.105,0.553l0,1c0,0.657 0.423,1.216 1.012,1.419c0.217,3.897 3.471,6.081 7.488,6.081c4.159,0 7.5,-2.341 7.5,-6.5c0,-0.266 -0.01,-0.52 -0.028,-0.765l0.735,-0.735c0,-0 6.793,-0 6.793,-0c0.828,-0 1.5,-0.672 1.5,-1.5c0,-1.458 0,-4.189 0,-6c0,-0.398 -0.158,-0.779 -0.439,-1.061c-0.282,-0.281 -0.663,-0.439 -1.061,-0.439c-0,0 -6.919,0 -6.919,0l-2.581,-0.86l0,-0.64c0,-0.398 -0.158,-0.779 -0.439,-1.061c-0.282,-0.281 -0.728,-0.439 -1.126,-0.439l0.445,-0.668c0.307,-0.461 0.335,-1.052 0.074,-1.54c-0.261,-0.488 -0.769,-0.792 -1.322,-0.792c-2.337,-0 -6.3,-0 -8.514,-0c-0.52,0 -1.003,0.269 -1.276,0.711c-0.273,0.443 -0.298,0.995 -0.066,1.46l0.915,1.829Zm8.524,-0.973l0.833,-1.25c0.102,-0.153 0.112,-0.35 0.025,-0.513c-0.087,-0.163 -0.257,-0.264 -0.441,-0.264c-0,-0 -8.514,-0 -8.514,0c-0.173,0 -0.334,0.09 -0.425,0.237c-0.091,0.148 -0.1,0.332 -0.022,0.487l1.138,2.276l2.691,-0c0.828,-0 1.5,0.672 1.5,1.5l0,1c-0,0.384 -0.144,0.735 -0.382,1c0.238,0.265 0.382,0.616 0.382,1l-0,1c-0,0.384 -0.144,0.735 -0.382,1c0.238,0.265 0.382,0.616 0.382,1l0,1c-0,0.384 -0.144,0.735 -0.382,1c0.238,0.265 0.382,0.616 0.382,1l-0,1c-0,0.828 -0.672,1.5 -1.5,1.5l-4.48,-0c0.262,3.248 3.083,5 6.48,5c3.568,0 6.5,-1.932 6.5,-5.5c-0,-3.517 -1.938,-4.845 -2.691,-5.484l-0.809,-0c-0.398,-0 -0.779,-0.158 -1.061,-0.44c-0.281,-0.281 -0.439,-0.663 -0.439,-1.06c0,-1.334 0,-3.682 0,-5.016c-0,-0.398 0.158,-0.779 0.439,-1.061c0.213,-0.213 0.484,-0.355 0.776,-0.412Zm-4.215,11.473l-0,1c-0,0.276 -0.224,0.5 -0.5,0.5l-5,-0c-0.276,-0 -0.5,-0.224 -0.5,-0.5c0,-0 0,-1 0,-1c0,-0.276 0.224,-0.5 0.5,-0.5l5,0c0.276,-0 0.5,0.224 0.5,0.5Zm7,-8.306l-0,3.322c0,0.397 -0.158,0.779 -0.439,1.06c-0.036,0.036 -0.073,0.069 -0.112,0.101c0.758,0.651 1.883,1.761 2.343,3.824l0.354,-0.355c0.094,-0.093 0.221,-0.146 0.354,-0.146c0,-0 7,-0 7,-0c0.276,-0 0.5,-0.224 0.5,-0.5l0,-6c0,-0.133 -0.053,-0.26 -0.146,-0.354c-0.094,-0.093 -0.221,-0.146 -0.354,-0.146l-7,0c-0.054,0 -0.107,-0.009 -0.158,-0.026l-2.342,-0.78Zm-7,5.306l0,1c-0,0.276 -0.224,0.5 -0.5,0.5l-6,-0c-0.276,0 -0.5,-0.224 -0.5,-0.5l0,-1c0,-0.133 0.053,-0.26 0.146,-0.354c0.094,-0.093 0.221,-0.146 0.354,-0.146c0,0 6,0 6,0c0.276,0 0.5,0.224 0.5,0.5Zm5.5,-7.5c0,-0 -1.005,0.002 -1.025,0.001c-0.124,0.006 -0.241,0.058 -0.329,0.145c-0.093,0.094 -0.146,0.221 -0.146,0.354l-0,5.016c-0,0.132 0.053,0.259 0.146,0.353c0.094,0.094 0.221,0.147 0.354,0.147c-0,-0 1,-0 1,-0c0.133,-0 0.26,-0.053 0.354,-0.147c0.093,-0.094 0.146,-0.221 0.146,-0.353l0,-5.016c0,-0.133 -0.053,-0.26 -0.146,-0.354c-0.094,-0.093 -0.221,-0.146 -0.354,-0.146Zm-5.5,4.5l0,1c-0,0.276 -0.224,0.5 -0.5,0.5l-7,0c-0.276,0 -0.5,-0.224 -0.5,-0.5c0,-0 0,-1 0,-1c0,-0.276 0.224,-0.5 0.5,-0.5l7,0c0.276,0 0.5,0.224 0.5,0.5Zm-0.5,-3.5l-6,0c-0.132,0 -0.26,0.053 -0.353,0.146c-0.094,0.094 -0.147,0.221 -0.147,0.354l0,1c0,0.133 0.053,0.26 0.147,0.354c0.093,0.093 0.22,0.146 0.353,0.146l6,-0c0.276,-0 0.5,-0.224 0.5,-0.5l-0,-1c-0,-0.276 -0.224,-0.5 -0.5,-0.5Z" id="Charity"/></svg>